999
dxflib 2.2.0.0
  0
SECTION
  2
HEADER
  9
$ACADVER
  1
AC1015
  9
$HANDSEED
  5
FFFF
  9
$DIMASZ
 40
2.5
  9
$PLIMMIN
 10
0.0
 20
0.0
  9
$DIMEXE
 40
1.25
  9
$DIMGAP
 40
0.625
  9
$PLIMMAX
 10
210.0
 20
297.0
  9
$INSUNITS
 70
4
  9
$DIMSTYLE
  2
Standard
  9
$DIMEXO
 40
0.625
  9
$DIMTXT
 40
2.5
  0
ENDSEC
  0
SECTION
  2
TABLES
  0
TABLE
  2
VPORT
  5
8
100
AcDbSymbolTable
 70
1
  0
VPORT
  5
30
100
AcDbSymbolTableRecord
100
AcDbViewportTableRecord
  2
*Active
 70
0
 10
0.0
 20
0.0
 11
1.0
 21
1.0
 12
286.3055555555554861
 22
148.5
 13
0.0
 23
0.0
 14
10.0
 24
10.0
 15
10.0
 25
10.0
 16
0.0
 26
0.0
 36
1.0
 17
0.0
 27
0.0
 37
0.0
 40
297.0
 41
1.92798353909465
 42
50.0
 43
0.0
 44
0.0
 50
0.0
 51
0.0
 71
0
 72
100
 73
1
 74
3
 75
1
 76
1
 77
0
 78
0
281
0
 65
1
110
0.0
120
0.0
130
0.0
111
1.0
121
0.0
131
0.0
112
0.0
122
1.0
132
0.0
 79
0
146
0.0
  0
ENDTAB
  0
TABLE
  2
LTYPE
  5
5
100
AcDbSymbolTable
 70
21
  0
LTYPE
  5
14
100
AcDbSymbolTableRecord
100
AcDbLinetypeTableRecord
  2
ByBlock
 70
0
  3

 72
65
 73
0
 40
0.0
  0
LTYPE
  5
15
100
AcDbSymbolTableRecord
100
AcDbLinetypeTableRecord
  2
ByLayer
 70
0
  3

 72
65
 73
0
 40
0.0
  0
LTYPE
  5
16
100
AcDbSymbolTableRecord
100
AcDbLinetypeTableRecord
  2
CONTINUOUS
 70
0
  3
Solid line
 72
65
 73
0
 40
0.0
  0
LTYPE
  5
31
100
AcDbSymbolTableRecord
100
AcDbLinetypeTableRecord
  2
DOT
 70
0
  3
Dot . . . . . . . . . . . . . . . . . . . . . .
 72
65
 73
2
 40
6.3499999999999996
 49
0.0
 74
0
 49
-6.3499999999999996
 74
0
  0
LTYPE
  5
32
100
AcDbSymbolTableRecord
100
AcDbLinetypeTableRecord
  2
DOT2
 70
0
  3
Dot (.5x) .....................................
 72
65
 73
2
 40
3.1749999999999998
 49
0.0
 74
0
 49
-3.1749999999999998
 74
0
  0
LTYPE
  5
33
100
AcDbSymbolTableRecord
100
AcDbLinetypeTableRecord
  2
DOTX2
 70
0
  3
Dot (2x) .  .  .  .  .  .  .  .  .  .  .  .  .
 72
65
 73
2
 40
12.6999999999999993
 49
0.0
 74
0
 49
-12.6999999999999993
 74
0
  0
LTYPE
  5
34
100
AcDbSymbolTableRecord
100
AcDbLinetypeTableRecord
  2
DASHED
 70
0
  3
Dashed __ __ __ __ __ __ __ __ __ __ __ __ __ _
 72
65
 73
2
 40
19.0500000000000007
 49
12.6999999999999993
 74
0
 49
-6.3499999999999996
 74
0
  0
LTYPE
  5
35
100
AcDbSymbolTableRecord
100
AcDbLinetypeTableRecord
  2
DASHED2
 70
0
  3
Dashed (.5x) _ _ _ _ _ _ _ _ _ _ _ _ _ _ _ _ _
 72
65
 73
2
 40
9.5250000000000004
 49
6.3499999999999996
 74
0
 49
-3.1749999999999998
 74
0
  0
LTYPE
  5
36
100
AcDbSymbolTableRecord
100
AcDbLinetypeTableRecord
  2
DASHEDX2
 70
0
  3
Dashed (2x) ____  ____  ____  ____  ____  ___
 72
65
 73
2
 40
38.1000000000000014
 49
25.3999999999999986
 74
0
 49
-12.6999999999999993
 74
0
  0
LTYPE
  5
37
100
AcDbSymbolTableRecord
100
AcDbLinetypeTableRecord
  2
DASHDOT
 70
0
  3
Dash dot __ . __ . __ . __ . __ . __ . __ . __
 72
65
 73
4
 40
25.3999999999999986
 49
12.6999999999999993
 74
0
 49
-6.3499999999999996
 74
0
 49
0.0
 74
0
 49
-6.3499999999999996
 74
0
  0
LTYPE
  5
38
100
AcDbSymbolTableRecord
100
AcDbLinetypeTableRecord
  2
DASHDOT2
 70
0
  3
Dash dot (.5x) _._._._._._._._._._._._._._._.
 72
65
 73
4
 40
12.6999999999999993
 49
6.3499999999999996
 74
0
 49
-3.1749999999999998
 74
0
 49
0.0
 74
0
 49
-3.1749999999999998
 74
0
  0
LTYPE
  5
39
100
AcDbSymbolTableRecord
100
AcDbLinetypeTableRecord
  2
DASHDOTX2
 70
0
  3
Dash dot (2x) ____  .  ____  .  ____  .  ___
 72
65
 73
4
 40
50.7999999999999972
 49
25.3999999999999986
 74
0
 49
-12.6999999999999993
 74
0
 49
0.0
 74
0
 49
-12.6999999999999993
 74
0
  0
LTYPE
  5
3A
100
AcDbSymbolTableRecord
100
AcDbLinetypeTableRecord
  2
DIVIDE
 70
0
  3
Divide ____ . . ____ . . ____ . . ____ . . ____
 72
65
 73
6
 40
31.75
 49
12.6999999999999993
 74
0
 49
-6.3499999999999996
 74
0
 49
0.0
 74
0
 49
-6.3499999999999996
 74
0
 49
0.0
 74
0
 49
-6.3499999999999996
 74
0
  0
LTYPE
  5
3B
100
AcDbSymbolTableRecord
100
AcDbLinetypeTableRecord
  2
DIVIDE2
 70
0
  3
Divide (.5x) __..__..__..__..__..__..__..__.._
 72
65
 73
6
 40
15.875
 49
6.3499999999999996
 74
0
 49
-3.1749999999999998
 74
0
 49
0.0
 74
0
 49
-3.1749999999999998
 74
0
 49
0.0
 74
0
 49
-3.1749999999999998
 74
0
  0
LTYPE
  5
3C
100
AcDbSymbolTableRecord
100
AcDbLinetypeTableRecord
  2
DIVIDEX2
 70
0
  3
Divide (2x) ________  .  .  ________  .  .  _
 72
65
 73
6
 40
63.5
 49
25.3999999999999986
 74
0
 49
-12.6999999999999993
 74
0
 49
0.0
 74
0
 49
-12.6999999999999993
 74
0
 49
0.0
 74
0
 49
-12.6999999999999993
 74
0
  0
LTYPE
  5
3D
100
AcDbSymbolTableRecord
100
AcDbLinetypeTableRecord
  2
CENTER
 70
0
  3
Center ____ _ ____ _ ____ _ ____ _ ____ _ ____
 72
65
 73
4
 40
50.7999999999999972
 49
31.75
 74
0
 49
-6.3499999999999996
 74
0
 49
6.3499999999999996
 74
0
 49
-6.3499999999999996
 74
0
  0
LTYPE
  5
3E
100
AcDbSymbolTableRecord
100
AcDbLinetypeTableRecord
  2
CENTER2
 70
0
  3
Center (.5x) ___ _ ___ _ ___ _ ___ _ ___ _ ___
 72
65
 73
4
 40
28.5749999999999993
 49
19.0500000000000007
 74
0
 49
-3.1749999999999998
 74
0
 49
3.1749999999999998
 74
0
 49
-3.1749999999999998
 74
0
  0
LTYPE
  5
3F
100
AcDbSymbolTableRecord
100
AcDbLinetypeTableRecord
  2
CENTERX2
 70
0
  3
Center (2x) ________  __  ________  __  _____
 72
65
 73
4
 40
101.5999999999999943
 49
63.5
 74
0
 49
-12.6999999999999993
 74
0
 49
12.6999999999999993
 74
0
 49
-12.6999999999999993
 74
0
  0
LTYPE
  5
40
100
AcDbSymbolTableRecord
100
AcDbLinetypeTableRecord
  2
BORDER
 70
0
  3
Border __ __ . __ __ . __ __ . __ __ . __ __ .
 72
65
 73
6
 40
44.4500000000000028
 49
12.6999999999999993
 74
0
 49
-6.3499999999999996
 74
0
 49
12.6999999999999993
 74
0
 49
-6.3499999999999996
 74
0
 49
0.0
 74
0
 49
-6.3499999999999996
 74
0
  0
LTYPE
  5
41
100
AcDbSymbolTableRecord
100
AcDbLinetypeTableRecord
  2
BORDER2
 70
0
  3
Border (.5x) __.__.__.__.__.__.__.__.__.__.__.
 72
65
 73
6
 40
22.2250000000000014
 49
6.3499999999999996
 74
0
 49
-3.1749999999999998
 74
0
 49
6.3499999999999996
 74
0
 49
-3.1749999999999998
 74
0
 49
0.0
 74
0
 49
-3.1749999999999998
 74
0
  0
LTYPE
  5
42
100
AcDbSymbolTableRecord
100
AcDbLinetypeTableRecord
  2
BORDERX2
 70
0
  3
Border (2x) ____  ____  .  ____  ____  .  ___
 72
65
 73
6
 40
88.9000000000000057
 49
25.3999999999999986
 74
0
 49
-12.6999999999999993
 74
0
 49
25.3999999999999986
 74
0
 49
-12.6999999999999993
 74
0
 49
0.0
 74
0
 49
-12.6999999999999993
 74
0
  0
ENDTAB
  0
TABLE
  2
LAYER
  5
2
100
AcDbSymbolTable
 70
16
  0
LAYER
  5
10
100
AcDbSymbolTableRecord
100
AcDbLayerTableRecord
  2
0
 70
0
 62
7
  6
CONTINUOUS
370
0
390
F
  0
LAYER
  5
43
100
AcDbSymbolTableRecord
100
AcDbLayerTableRecord
  2
RelayBoard_Board
 70
1
 62
2
  6
CONTINUOUS
370
0
390
F
  0
LAYER
  5
44
100
AcDbSymbolTableRecord
100
AcDbLayerTableRecord
  2
RelayBoard_MountingHoles
 70
0
 62
1
  6
CONTINUOUS
370
0
390
F
  0
LAYER
  5
45
100
AcDbSymbolTableRecord
100
AcDbLayerTableRecord
  2
RelayBoard_Pins
 70
1
 62
4
  6
CONTINUOUS
370
0
390
F
  0
LAYER
  5
46
100
AcDbSymbolTableRecord
100
AcDbLayerTableRecord
  2
RelayBoard_TerminalBlocks
 70
1
 62
4
  6
CONTINUOUS
370
0
390
F
  0
LAYER
  5
47
100
AcDbSymbolTableRecord
100
AcDbLayerTableRecord
  2
RaspberryPi_MountingHoles
 70
0
 62
1
  6
CONTINUOUS
370
0
390
F
  0
LAYER
  5
48
100
AcDbSymbolTableRecord
100
AcDbLayerTableRecord
  2
RaspberryPi_BoardHeaders
 70
1
 62
4
  6
CONTINUOUS
370
0
390
F
  0
LAYER
  5
49
100
AcDbSymbolTableRecord
100
AcDbLayerTableRecord
  2
RaspberryPi_Connectors
 70
1
 62
3
  6
CONTINUOUS
370
0
390
F
  0
LAYER
  5
4A
100
AcDbSymbolTableRecord
100
AcDbLayerTableRecord
  2
RaspberryPi_Board
 70
1
 62
2
  6
CONTINUOUS
370
0
390
F
  0
LAYER
  5
4B
100
AcDbSymbolTableRecord
100
AcDbLayerTableRecord
  2
PanelOuter
 70
0
 62
1
  6
CONTINUOUS
370
0
390
F
  0
LAYER
  5
4C
100
AcDbSymbolTableRecord
100
AcDbLayerTableRecord
  2
ArmMountings
 70
0
 62
1
  6
CONTINUOUS
370
0
390
F
  0
LAYER
  5
4D
100
AcDbSymbolTableRecord
100
AcDbLayerTableRecord
  2
GearedMotor_MouningHoles
 70
0
 62
1
  6
CONTINUOUS
370
0
390
F
  0
LAYER
  5
4E
100
AcDbSymbolTableRecord
100
AcDbLayerTableRecord
  2
GearedMotor_Plate
 70
1
 62
2
  6
CONTINUOUS
370
0
390
F
  0
LAYER
  5
4F
100
AcDbSymbolTableRecord
100
AcDbLayerTableRecord
  2
GearedMotor_Gearbox
 70
1
 62
3
  6
CONTINUOUS
370
0
390
F
  0
LAYER
  5
50
100
AcDbSymbolTableRecord
100
AcDbLayerTableRecord
  2
Castor_MountingHoles
 70
0
 62
1
  6
CONTINUOUS
370
0
390
F
  0
LAYER
  5
51
100
AcDbSymbolTableRecord
100
AcDbLayerTableRecord
  2
Castor_Plate
 70
1
 62
2
  6
CONTINUOUS
370
0
390
F
  0
ENDTAB
  0
TABLE
  2
STYLE
  5
3
100
AcDbSymbolTable
 70
1
  0
STYLE
  5
11
100
AcDbSymbolTableRecord
100
AcDbTextStyleTableRecord
  2
Standard
 70
0
 40
0.0
 41
0.75
 50
0.0
 71
0
 42
2.5
  3
txt
  4

  0
ENDTAB
  0
TABLE
  2
VIEW
  5
6
100
AcDbSymbolTable
 70
0
  0
ENDTAB
  0
TABLE
  2
UCS
  5
7
100
AcDbSymbolTable
 70
0
  0
ENDTAB
  0
TABLE
  2
APPID
  5
9
100
AcDbSymbolTable
 70
1
  0
APPID
  5
12
100
AcDbSymbolTableRecord
100
AcDbRegAppTableRecord
  2
ACAD
 70
0
  0
ENDTAB
  0
TABLE
  2
DIMSTYLE
  5
A
100
AcDbSymbolTable
 70
1
100
AcDbDimStyleTable
 71
0
  0
DIMSTYLE
105
27
100
AcDbSymbolTableRecord
100
AcDbDimStyleTableRecord
  2
Standard
 41
2.5
 42
0.625
 43
3.75
 44
1.25
 70
0
 73
0
 74
0
 77
1
 78
8
140
2.5
141
2.5
143
0.03937007874016
147
0.625
171
3
172
1
271
2
272
2
274
3
278
44
283
0
284
8
340
11
  0
ENDTAB
  0
TABLE
  2
BLOCK_RECORD
  5
1
100
AcDbSymbolTable
 70
1
  0
BLOCK_RECORD
  5
1F
100
AcDbSymbolTableRecord
100
AcDbBlockTableRecord
  2
*Model_Space
340
22
  0
BLOCK_RECORD
  5
1B
100
AcDbSymbolTableRecord
100
AcDbBlockTableRecord
  2
*Paper_Space
340
1E
  0
BLOCK_RECORD
  5
23
100
AcDbSymbolTableRecord
100
AcDbBlockTableRecord
  2
*Paper_Space0
340
26
  0
BLOCK_RECORD
  5
52
100
AcDbSymbolTableRecord
100
AcDbBlockTableRecord
  2
eBay_RelayBoard-0
340
0
  0
BLOCK_RECORD
  5
53
100
AcDbSymbolTableRecord
100
AcDbBlockTableRecord
  2
RaspberryPi-0
340
0
  0
BLOCK_RECORD
  5
54
100
AcDbSymbolTableRecord
100
AcDbBlockTableRecord
  2
GearedMotor-0
340
0
  0
BLOCK_RECORD
  5
55
100
AcDbSymbolTableRecord
100
AcDbBlockTableRecord
  2
Castor30mm-0
340
0
  0
ENDTAB
  0
ENDSEC
  0
SECTION
  2
BLOCKS
  0
BLOCK
  5
20
100
AcDbEntity
  8
0
100
AcDbBlockBegin
  2
*Model_Space
 70
0
 10
0.0
 20
0.0
 30
0.0
  3
*Model_Space
  1

  0
ENDBLK
  5
21
100
AcDbEntity
  8
0
100
AcDbBlockEnd
  0
BLOCK
  5
1C
100
AcDbEntity
 67
1
  8
0
100
AcDbBlockBegin
  2
*Paper_Space
 70
0
 10
0.0
 20
0.0
 30
0.0
  3
*Paper_Space
  1

  0
ENDBLK
  5
1D
100
AcDbEntity
 67
1
  8
0
100
AcDbBlockEnd
  0
BLOCK
  5
24
100
AcDbEntity
  8
0
100
AcDbBlockBegin
  2
*Paper_Space0
 70
0
 10
0.0
 20
0.0
 30
0.0
  3
*Paper_Space0
  1

  0
ENDBLK
  5
25
100
AcDbEntity
  8
0
100
AcDbBlockEnd
  0
BLOCK
  5
56
100
AcDbEntity
  8
0
100
AcDbBlockBegin
  2
eBay_RelayBoard-0
 70
0
 10
0.0
 20
0.0
 30
0.0
  3
eBay_RelayBoard-0
  1

  0
CIRCLE
  5
57
100
AcDbEntity
100
AcDbCircle
  8
RelayBoard_MountingHoles
 62
256
370
-1
  6
ByLayer
 10
-24.75
 20
65.5
 30
0.0
 40
1.75
  0
CIRCLE
  5
58
100
AcDbEntity
100
AcDbCircle
  8
RelayBoard_MountingHoles
 62
256
370
-1
  6
ByLayer
 10
24.75
 20
65.5
 30
0.0
 40
1.75
  0
CIRCLE
  5
59
100
AcDbEntity
100
AcDbCircle
  8
RelayBoard_MountingHoles
 62
256
370
-1
  6
ByLayer
 10
24.75
 20
-65.5
 30
0.0
 40
1.75
  0
CIRCLE
  5
5A
100
AcDbEntity
100
AcDbCircle
  8
RelayBoard_MountingHoles
 62
256
370
-1
  6
ByLayer
 10
-24.75
 20
-65.5
 30
0.0
 40
1.75
  0
ARC
  5
5B
100
AcDbEntity
  8
RelayBoard_Board
 62
256
370
-1
  6
ByLayer
100
AcDbCircle
 10
-25.0
 20
66.0
 30
0.0
 40
3.0
100
AcDbArc
 50
90.0
 51
180.0
  0
LINE
  5
5C
100
AcDbEntity
100
AcDbLine
  8
RelayBoard_Board
 62
256
370
-1
  6
ByLayer
 10
-25.0
 20
69.0
 30
0.0
 11
25.0
 21
69.0
 31
0.0
  0
ARC
  5
5D
100
AcDbEntity
  8
RelayBoard_Board
 62
256
370
-1
  6
ByLayer
100
AcDbCircle
 10
25.0
 20
66.0
 30
0.0
 40
3.0
100
AcDbArc
 50
0.0
 51
90.0
  0
LINE
  5
5E
100
AcDbEntity
100
AcDbLine
  8
RelayBoard_Board
 62
256
370
-1
  6
ByLayer
 10
28.0
 20
-66.0
 30
0.0
 11
28.0
 21
66.0
 31
0.0
  0
ARC
  5
5F
100
AcDbEntity
  8
RelayBoard_Board
 62
256
370
-1
  6
ByLayer
100
AcDbCircle
 10
25.0
 20
-66.0
 30
0.0
 40
3.0
100
AcDbArc
 50
270.0
 51
0.0
  0
LINE
  5
60
100
AcDbEntity
100
AcDbLine
  8
RelayBoard_Board
 62
256
370
-1
  6
ByLayer
 10
-28.0
 20
66.0
 30
0.0
 11
-28.0
 21
-66.0
 31
0.0
  0
LINE
  5
61
100
AcDbEntity
100
AcDbLine
  8
RelayBoard_Board
 62
256
370
-1
  6
ByLayer
 10
-25.0
 20
-69.0
 30
0.0
 11
25.0
 21
-69.0
 31
0.0
  0
ARC
  5
62
100
AcDbEntity
  8
RelayBoard_Board
 62
256
370
-1
  6
ByLayer
100
AcDbCircle
 10
-25.0
 20
-66.0
 30
0.0
 40
3.0
100
AcDbArc
 50
180.0
 51
270.0
  0
CIRCLE
  5
63
100
AcDbEntity
100
AcDbCircle
  8
RelayBoard_Pins
 62
256
370
-1
  6
ByLayer
 10
24.0
 20
54.0
 30
0.0
 40
0.5
  0
CIRCLE
  5
64
100
AcDbEntity
100
AcDbCircle
  8
RelayBoard_Pins
 62
256
370
-1
  6
ByLayer
 10
24.0
 20
51.4600000000000009
 30
0.0
 40
0.5
  0
CIRCLE
  5
65
100
AcDbEntity
100
AcDbCircle
  8
RelayBoard_Pins
 62
256
370
-1
  6
ByLayer
 10
24.0
 20
48.9200000000000017
 30
0.0
 40
0.5
  0
CIRCLE
  5
66
100
AcDbEntity
100
AcDbCircle
  8
RelayBoard_Pins
 62
256
370
-1
  6
ByLayer
 10
24.0
 20
11.5
 30
0.0
 40
0.5
  0
CIRCLE
  5
67
100
AcDbEntity
100
AcDbCircle
  8
RelayBoard_Pins
 62
256
370
-1
  6
ByLayer
 10
24.0
 20
8.9600000000000009
 30
0.0
 40
0.5
  0
CIRCLE
  5
68
100
AcDbEntity
100
AcDbCircle
  8
RelayBoard_Pins
 62
256
370
-1
  6
ByLayer
 10
24.0
 20
6.4199999999999999
 30
0.0
 40
0.5
  0
CIRCLE
  5
69
100
AcDbEntity
100
AcDbCircle
  8
RelayBoard_Pins
 62
256
370
-1
  6
ByLayer
 10
24.0
 20
3.8799999999999999
 30
0.0
 40
0.5
  0
CIRCLE
  5
6A
100
AcDbEntity
100
AcDbCircle
  8
RelayBoard_Pins
 62
256
370
-1
  6
ByLayer
 10
24.0
 20
1.3400000000000001
 30
0.0
 40
0.5
  0
CIRCLE
  5
6B
100
AcDbEntity
100
AcDbCircle
  8
RelayBoard_Pins
 62
256
370
-1
  6
ByLayer
 10
24.0
 20
-1.2
 30
0.0
 40
0.5
  0
CIRCLE
  5
6C
100
AcDbEntity
100
AcDbCircle
  8
RelayBoard_Pins
 62
256
370
-1
  6
ByLayer
 10
24.0
 20
-3.7400000000000002
 30
0.0
 40
0.5
  0
CIRCLE
  5
6D
100
AcDbEntity
100
AcDbCircle
  8
RelayBoard_Pins
 62
256
370
-1
  6
ByLayer
 10
24.0
 20
-6.2800000000000002
 30
0.0
 40
0.5
  0
CIRCLE
  5
6E
100
AcDbEntity
100
AcDbCircle
  8
RelayBoard_Pins
 62
256
370
-1
  6
ByLayer
 10
24.0
 20
-8.8200000000000003
 30
0.0
 40
0.5
  0
CIRCLE
  5
6F
100
AcDbEntity
100
AcDbCircle
  8
RelayBoard_Pins
 62
256
370
-1
  6
ByLayer
 10
24.0
 20
-11.3599999999999994
 30
0.0
 40
0.5
  0
MTEXT
  5
70
100
AcDbEntity
100
AcDbMText
  8
RelayBoard_Pins
 62
256
370
-1
  6
ByLayer
 10
25.0
 20
54.0
 30
0.0
 40
1.0
 41
5.4444444444400002
 71
4
 72
2
  1
RLY-Vcc
  7
iso
 50
0.0
 73
1
 44
1.0
  0
MTEXT
  5
71
100
AcDbEntity
100
AcDbMText
  8
RelayBoard_Pins
 62
256
370
-1
  6
ByLayer
 10
25.0
 20
51.4600000000000009
 30
0.0
 40
1.0
 41
2.0
 71
4
 72
2
  1
Vcc
  7
iso
 50
0.0
 73
1
 44
1.0
  0
MTEXT
  5
72
100
AcDbEntity
100
AcDbMText
  8
RelayBoard_Pins
 62
256
370
-1
  6
ByLayer
 10
25.0
 20
48.9200000000000017
 30
0.0
 40
1.0
 41
2.3333333333300001
 71
4
 72
2
  1
GND
  7
iso
 50
0.0
 73
1
 44
1.0
  0
MTEXT
  5
73
100
AcDbEntity
100
AcDbMText
  8
RelayBoard_Pins
 62
256
370
-1
  6
ByLayer
 10
25.0
 20
11.5
 30
0.0
 40
1.0
 41
2.0
 71
4
 72
2
  1
Vcc
  7
iso
 50
0.0
 73
1
 44
1.0
  0
MTEXT
  5
74
100
AcDbEntity
100
AcDbMText
  8
RelayBoard_Pins
 62
256
370
-1
  6
ByLayer
 10
25.0
 20
8.9600000000000009
 30
0.0
 40
1.0
 41
1.3333333333299999
 71
4
 72
2
  1
R8
  7
iso
 50
0.0
 73
1
 44
1.0
  0
MTEXT
  5
75
100
AcDbEntity
100
AcDbMText
  8
RelayBoard_Pins
 62
256
370
-1
  6
ByLayer
 10
25.0
 20
6.4199999999999999
 30
0.0
 40
1.0
 41
1.3333333333299999
 71
4
 72
2
  1
R7
  7
iso
 50
0.0
 73
1
 44
1.0
  0
MTEXT
  5
76
100
AcDbEntity
100
AcDbMText
  8
RelayBoard_Pins
 62
256
370
-1
  6
ByLayer
 10
25.0
 20
3.8799999999999999
 30
0.0
 40
1.0
 41
1.3333333333299999
 71
4
 72
2
  1
R6
  7
iso
 50
0.0
 73
1
 44
1.0
  0
MTEXT
  5
77
100
AcDbEntity
100
AcDbMText
  8
RelayBoard_Pins
 62
256
370
-1
  6
ByLayer
 10
25.0
 20
1.3400000000000001
 30
0.0
 40
1.0
 41
1.3333333333299999
 71
4
 72
2
  1
R5
  7
iso
 50
0.0
 73
1
 44
1.0
  0
MTEXT
  5
78
100
AcDbEntity
100
AcDbMText
  8
RelayBoard_Pins
 62
256
370
-1
  6
ByLayer
 10
25.0
 20
-1.2
 30
0.0
 40
1.0
 41
1.44444444444
 71
4
 72
2
  1
R4
  7
iso
 50
0.0
 73
1
 44
1.0
  0
MTEXT
  5
79
100
AcDbEntity
100
AcDbMText
  8
RelayBoard_Pins
 62
256
370
-1
  6
ByLayer
 10
25.0
 20
-3.7400000000000002
 30
0.0
 40
1.0
 41
1.3333333333299999
 71
4
 72
2
  1
R3
  7
iso
 50
0.0
 73
1
 44
1.0
  0
MTEXT
  5
7A
100
AcDbEntity
100
AcDbMText
  8
RelayBoard_Pins
 62
256
370
-1
  6
ByLayer
 10
25.0
 20
-6.2800000000000002
 30
0.0
 40
1.0
 41
1.3333333333299999
 71
4
 72
2
  1
R2
  7
iso
 50
0.0
 73
1
 44
1.0
  0
MTEXT
  5
7B
100
AcDbEntity
100
AcDbMText
  8
RelayBoard_Pins
 62
256
370
-1
  6
ByLayer
 10
25.0
 20
-8.8200000000000003
 30
0.0
 40
1.0
 41
1.11111111111
 71
4
 72
2
  1
R1
  7
iso
 50
0.0
 73
1
 44
1.0
  0
MTEXT
  5
7C
100
AcDbEntity
100
AcDbMText
  8
RelayBoard_Pins
 62
256
370
-1
  6
ByLayer
 10
25.0
 20
-11.3599999999999994
 30
0.0
 40
1.0
 41
2.3333333333300001
 71
4
 72
2
  1
GND
  7
iso
 50
0.0
 73
1
 44
1.0
  0
LINE
  5
7D
100
AcDbEntity
100
AcDbLine
  8
RelayBoard_TerminalBlocks
 62
256
370
-1
  6
ByLayer
 10
-23.0
 20
-63.0
 30
0.0
 11
-23.0
 21
63.0
 31
0.0
  0
LINE
  5
7E
100
AcDbEntity
100
AcDbLine
  8
RelayBoard_TerminalBlocks
 62
256
370
-1
  6
ByLayer
 10
-23.0
 20
63.0
 30
0.0
 11
-15.0
 21
63.0
 31
0.0
  0
LINE
  5
7F
100
AcDbEntity
100
AcDbLine
  8
RelayBoard_TerminalBlocks
 62
256
370
-1
  6
ByLayer
 10
-23.0
 20
-63.0
 30
0.0
 11
-15.0
 21
-63.0
 31
0.0
  0
LINE
  5
80
100
AcDbEntity
100
AcDbLine
  8
RelayBoard_TerminalBlocks
 62
256
370
-1
  6
ByLayer
 10
-15.0
 20
-63.0
 30
0.0
 11
-15.0
 21
63.0
 31
0.0
  0
ENDBLK
  5
81
100
AcDbEntity
  8
0
100
AcDbBlockEnd
  0
BLOCK
  5
82
100
AcDbEntity
  8
0
100
AcDbBlockBegin
  2
RaspberryPi-0
 70
0
 10
0.0
 20
0.0
 30
0.0
  3
RaspberryPi-0
  1

  0
CIRCLE
  5
83
100
AcDbEntity
100
AcDbCircle
  8
RaspberryPi_MountingHoles
 62
256
370
-1
  6
ByLayer
 10
25.5
 20
18.0
 30
0.0
 40
1.45
  0
CIRCLE
  5
84
100
AcDbEntity
100
AcDbCircle
  8
RaspberryPi_MountingHoles
 62
256
370
-1
  6
ByLayer
 10
80.0
 20
43.5
 30
0.0
 40
1.45
  0
LINE
  5
85
100
AcDbEntity
100
AcDbLine
  8
RaspberryPi_BoardHeaders
 62
256
370
-1
  6
ByLayer
 10
59.7455679999999987
 20
21.9499989999999912
 30
0.0
 11
59.7455679999999987
 21
0.5329090000000036
 31
0.0
  0
LINE
  5
86
100
AcDbEntity
100
AcDbLine
  8
RaspberryPi_BoardHeaders
 62
256
370
-1
  6
ByLayer
 10
56.7469549999999998
 20
0.5329090000000036
 30
0.0
 11
59.7455679999999987
 21
0.5329090000000036
 31
0.0
  0
LINE
  5
87
100
AcDbEntity
100
AcDbLine
  8
RaspberryPi_BoardHeaders
 62
256
370
-1
  6
ByLayer
 10
56.7469549999999998
 20
21.9499989999999912
 30
0.0
 11
56.7469549999999998
 21
0.5329090000000036
 31
0.0
  0
LINE
  5
88
100
AcDbEntity
100
AcDbLine
  8
RaspberryPi_BoardHeaders
 62
256
370
-1
  6
ByLayer
 10
56.7469549999999998
 20
21.9499989999999912
 30
0.0
 11
59.7455679999999987
 21
21.9499989999999912
 31
0.0
  0
LINE
  5
89
100
AcDbEntity
100
AcDbLine
  8
RaspberryPi_BoardHeaders
 62
256
370
-1
  6
ByLayer
 10
13.090679999999999
 20
39.6912639999999968
 30
0.0
 11
13.090679999999999
 21
18.1999989999999912
 31
0.0
  0
LINE
  5
8A
100
AcDbEntity
100
AcDbLine
  8
RaspberryPi_BoardHeaders
 62
256
370
-1
  6
ByLayer
 10
10.180261999999999
 20
18.1999989999999912
 30
0.0
 11
13.090679999999999
 21
18.1999989999999912
 31
0.0
  0
LINE
  5
8B
100
AcDbEntity
100
AcDbLine
  8
RaspberryPi_BoardHeaders
 62
256
370
-1
  6
ByLayer
 10
10.180261999999999
 20
39.6912639999999968
 30
0.0
 11
10.180261999999999
 21
18.1999989999999912
 31
0.0
  0
LINE
  5
8C
100
AcDbEntity
100
AcDbLine
  8
RaspberryPi_BoardHeaders
 62
256
370
-1
  6
ByLayer
 10
10.180261999999999
 20
39.6912639999999968
 30
0.0
 11
13.090679999999999
 21
39.6912639999999968
 31
0.0
  0
LINE
  5
8D
100
AcDbEntity
100
AcDbLine
  8
RaspberryPi_Connectors
 62
256
370
-1
  6
ByLayer
 10
17.5004039999999996
 20
42.4252949999999984
 30
0.0
 11
17.5004039999999996
 21
18.1718099999999936
 31
0.0
  0
LINE
  5
8E
100
AcDbEntity
100
AcDbLine
  8
RaspberryPi_Connectors
 62
256
370
-1
  6
ByLayer
 10
0.0000000000000071
 20
42.4252949999999984
 30
0.0
 11
17.5004039999999996
 21
42.4252949999999984
 31
0.0
  0
LINE
  5
8F
100
AcDbEntity
100
AcDbLine
  8
RaspberryPi_Connectors
 62
256
370
-1
  6
ByLayer
 10
0.0000000000000142
 20
18.1718099999999936
 30
0.0
 11
17.5004039999999996
 21
18.1718099999999936
 31
0.0
  0
LINE
  5
90
100
AcDbEntity
100
AcDbLine
  8
RaspberryPi_Connectors
 62
256
370
-1
  6
ByLayer
 10
4.2999989999999997
 20
11.469026999999997
 30
0.0
 11
4.2999989999999997
 21
3.8843020000000053
 31
0.0
  0
LINE
  5
91
100
AcDbEntity
100
AcDbLine
  8
RaspberryPi_Connectors
 62
256
370
-1
  6
ByLayer
 10
0.0
 20
11.469026999999997
 30
0.0
 11
4.2999989999999997
 21
11.469026999999997
 31
0.0
  0
LINE
  5
92
100
AcDbEntity
100
AcDbLine
  8
RaspberryPi_Connectors
 62
256
370
-1
  6
ByLayer
 10
0.0000000000000142
 20
3.8843020000000053
 30
0.0
 11
4.2999989999999997
 21
3.8843020000000053
 31
0.0
  0
LINE
  5
93
100
AcDbEntity
100
AcDbLine
  8
RaspberryPi_Connectors
 62
256
370
-1
  6
ByLayer
 10
51.984453000000002
 20
10.7634709999999956
 30
0.0
 11
51.984453000000002
 21
0.0
 31
0.0
  0
LINE
  5
94
100
AcDbEntity
100
AcDbLine
  8
RaspberryPi_Connectors
 62
256
370
-1
  6
ByLayer
 10
37.0795829999999995
 20
10.7634709999999956
 30
0.0
 11
37.0795829999999995
 21
-0.0000000000000142
 31
0.0
  0
LINE
  5
95
100
AcDbEntity
100
AcDbLine
  8
RaspberryPi_Connectors
 62
256
370
-1
  6
ByLayer
 10
37.0795829999999995
 20
10.7634709999999956
 30
0.0
 11
51.984453000000002
 21
10.7634709999999956
 31
0.0
  0
LINE
  5
96
100
AcDbEntity
100
AcDbLine
  8
RaspberryPi_Connectors
 62
256
370
-1
  6
ByLayer
 10
65.7427919999999943
 20
2.2968000000000046
 30
0.0
 11
85.0
 21
2.2968000000000046
 31
0.0
  0
LINE
  5
97
100
AcDbEntity
100
AcDbLine
  8
RaspberryPi_Connectors
 62
256
370
-1
  6
ByLayer
 10
65.7427919999999943
 20
18.0836129999999997
 30
0.0
 11
65.7427919999999943
 21
2.2968000000000046
 31
0.0
  0
LINE
  5
98
100
AcDbEntity
100
AcDbLine
  8
RaspberryPi_Connectors
 62
256
370
-1
  6
ByLayer
 10
65.7427919999999943
 20
18.0836129999999997
 30
0.0
 11
85.0
 21
18.0836129999999997
 31
0.0
  0
LINE
  5
99
100
AcDbEntity
100
AcDbLine
  8
RaspberryPi_Connectors
 62
256
370
-1
  6
ByLayer
 10
75.3559910000000031
 20
37.6627920000000032
 30
0.0
 11
75.3559910000000031
 21
24.3454250000000059
 31
0.0
  0
LINE
  5
9A
100
AcDbEntity
100
AcDbLine
  8
RaspberryPi_Connectors
 62
256
370
-1
  6
ByLayer
 10
75.3559910000000031
 20
37.6627920000000032
 30
0.0
 11
85.0
 21
37.6627920000000032
 31
0.0
  0
LINE
  5
9B
100
AcDbEntity
100
AcDbLine
  8
RaspberryPi_Connectors
 62
256
370
-1
  6
ByLayer
 10
75.3559910000000031
 20
24.3454250000000059
 30
0.0
 11
85.0
 21
24.3454250000000059
 31
0.0
  0
LINE
  5
9C
100
AcDbEntity
100
AcDbLine
  8
RaspberryPi_Connectors
 62
256
370
-1
  6
ByLayer
 10
70.7698790000000031
 20
56.1999989999999983
 30
0.0
 11
70.7698790000000031
 21
45.5121010000000012
 31
0.0
  0
LINE
  5
9D
100
AcDbEntity
100
AcDbLine
  8
RaspberryPi_Connectors
 62
256
370
-1
  6
ByLayer
 10
58.5108430000000013
 20
56.1999989999999983
 30
0.0
 11
58.5108430000000013
 21
45.5121010000000012
 31
0.0
  0
LINE
  5
9E
100
AcDbEntity
100
AcDbLine
  8
RaspberryPi_Connectors
 62
256
370
-1
  6
ByLayer
 10
58.5108430000000013
 20
45.5121010000000012
 30
0.0
 11
70.7698790000000031
 21
45.5121010000000012
 31
0.0
  0
LINE
  5
9F
100
AcDbEntity
100
AcDbLine
  8
RaspberryPi_Connectors
 62
256
370
-1
  6
ByLayer
 10
51.4552839999999989
 20
53.8905779999999979
 30
0.0
 11
51.4552839999999989
 21
43.7482129999999998
 31
0.0
  0
LINE
  5
A0
100
AcDbEntity
100
AcDbLine
  8
RaspberryPi_Connectors
 62
256
370
-1
  6
ByLayer
 10
40.6955570000000009
 20
43.7482129999999998
 30
0.0
 11
51.4552839999999989
 21
43.7482129999999998
 31
0.0
  0
LINE
  5
A1
100
AcDbEntity
100
AcDbLine
  8
RaspberryPi_Connectors
 62
256
370
-1
  6
ByLayer
 10
40.6955570000000009
 20
53.8905779999999979
 30
0.0
 11
40.6955570000000009
 21
43.7482129999999998
 31
0.0
  0
LINE
  5
A2
100
AcDbEntity
100
AcDbLine
  8
RaspberryPi_Connectors
 62
256
370
-1
  6
ByLayer
 10
40.6955570000000009
 20
53.8905779999999979
 30
0.0
 11
51.4552839999999989
 21
53.8905779999999979
 31
0.0
  0
LINE
  5
A3
100
AcDbEntity
100
AcDbLine
  8
RaspberryPi_Connectors
 62
256
370
-1
  6
ByLayer
 10
50.1323689999999971
 20
56.1999989999999983
 30
0.0
 11
50.1323689999999971
 21
53.8905779999999979
 31
0.0
  0
LINE
  5
A4
100
AcDbEntity
100
AcDbLine
  8
RaspberryPi_Connectors
 62
256
370
-1
  6
ByLayer
 10
41.8420849999999973
 20
56.1999989999999983
 30
0.0
 11
41.8420849999999973
 21
53.8905779999999979
 31
0.0
  0
LINE
  5
A5
100
AcDbEntity
100
AcDbLine
  8
RaspberryPi_Connectors
 62
256
370
-1
  6
ByLayer
 10
41.8420849999999973
 20
53.8905779999999979
 30
0.0
 11
50.1323689999999971
 21
53.8905779999999979
 31
0.0
  0
LINE
  5
A6
100
AcDbEntity
100
AcDbLine
  8
RaspberryPi_Connectors
 62
256
370
-1
  6
ByLayer
 10
61.1499999999999986
 20
60.0999989999999968
 30
0.0
 11
68.2249989999999968
 21
60.0999989999999968
 31
0.0
  0
LINE
  5
A7
100
AcDbEntity
100
AcDbLine
  8
RaspberryPi_Connectors
 62
256
370
-1
  6
ByLayer
 10
58.5
 20
56.5750000000000028
 30
0.0
 11
70.774998999999994
 21
56.5750000000000028
 31
0.0
  0
LINE
  5
A8
100
AcDbEntity
100
AcDbLine
  8
RaspberryPi_Connectors
 62
256
370
-1
  6
ByLayer
 10
85.0
 20
37.6749989999999997
 30
0.0
 11
92.524998999999994
 21
37.6749989999999997
 31
0.0
  0
LINE
  5
A9
100
AcDbEntity
100
AcDbLine
  8
RaspberryPi_Connectors
 62
256
370
-1
  6
ByLayer
 10
85.0
 20
24.3499989999999968
 30
0.0
 11
92.524998999999994
 21
24.3499989999999968
 31
0.0
  0
LINE
  5
AA
100
AcDbEntity
100
AcDbLine
  8
RaspberryPi_Connectors
 62
256
370
-1
  6
ByLayer
 10
41.8500000000000014
 20
63.2999999999999972
 30
0.0
 11
50.125
 21
63.2999999999999972
 31
0.0
  0
LINE
  5
AB
100
AcDbEntity
100
AcDbLine
  8
RaspberryPi_Connectors
 62
256
370
-1
  6
ByLayer
 10
37.0750010000000003
 20
-1.1500010000000032
 30
0.0
 11
52.0
 21
-1.1500010000000032
 31
0.0
  0
LINE
  5
AC
100
AcDbEntity
100
AcDbLine
  8
RaspberryPi_Connectors
 62
256
370
-1
  6
ByLayer
 10
-18.0
 20
42.4249999999999972
 30
0.0
 11
-0.0249990000000011
 21
42.4249999999999972
 31
0.0
  0
LINE
  5
AD
100
AcDbEntity
100
AcDbLine
  8
RaspberryPi_Connectors
 62
256
370
-1
  6
ByLayer
 10
-18.0
 20
18.1749999999999972
 30
0.0
 11
0.0000000000000142
 21
18.1749999999999972
 31
0.0
  0
LINE
  5
AE
100
AcDbEntity
100
AcDbLine
  8
RaspberryPi_Connectors
 62
256
370
-1
  6
ByLayer
 10
-0.7500009999999975
 20
11.4749979999999994
 30
0.0
 11
0.0000000000000142
 21
11.4749979999999994
 31
0.0
  0
LINE
  5
AF
100
AcDbEntity
100
AcDbLine
  8
RaspberryPi_Connectors
 62
256
370
-1
  6
ByLayer
 10
85.0
 20
18.0749979999999937
 30
0.0
 11
86.0000009999999975
 21
18.0749979999999937
 31
0.0
  0
LINE
  5
B0
100
AcDbEntity
100
AcDbLine
  8
RaspberryPi_Connectors
 62
256
370
-1
  6
ByLayer
 10
85.0
 20
2.2999999999999972
 30
0.0
 11
86.0000009999999975
 21
2.2999999999999972
 31
0.0
  0
LINE
  5
B1
100
AcDbEntity
100
AcDbLine
  8
RaspberryPi_Connectors
 62
256
370
-1
  6
ByLayer
 10
-0.7500009999999975
 20
3.874998000000005
 30
0.0
 11
0.0
 21
3.874998000000005
 31
0.0
  0
LINE
  5
B2
100
AcDbEntity
100
AcDbLine
  8
RaspberryPi_Connectors
 62
256
370
-1
  6
ByLayer
 10
92.524998999999994
 20
37.6749989999999997
 30
0.0
 11
92.524998999999994
 21
24.3499989999999968
 31
0.0
  0
LINE
  5
B3
100
AcDbEntity
100
AcDbLine
  8
RaspberryPi_Connectors
 62
256
370
-1
  6
ByLayer
 10
50.125
 20
63.2999999999999972
 30
0.0
 11
50.125
 21
56.1999989999999983
 31
0.0
  0
LINE
  5
B4
100
AcDbEntity
100
AcDbLine
  8
RaspberryPi_Connectors
 62
256
370
-1
  6
ByLayer
 10
41.8500000000000014
 20
63.2999999999999972
 30
0.0
 11
41.8500000000000014
 21
56.1999989999999983
 31
0.0
  0
LINE
  5
B5
100
AcDbEntity
100
AcDbLine
  8
RaspberryPi_Connectors
 62
256
370
-1
  6
ByLayer
 10
-18.0
 20
42.4249999999999972
 30
0.0
 11
-18.0
 21
18.1749999999999972
 31
0.0
  0
LINE
  5
B6
100
AcDbEntity
100
AcDbLine
  8
RaspberryPi_Connectors
 62
256
370
-1
  6
ByLayer
 10
86.0000009999999975
 20
18.0749979999999937
 30
0.0
 11
86.0000009999999975
 21
2.2999999999999972
 31
0.0
  0
LINE
  5
B7
100
AcDbEntity
100
AcDbLine
  8
RaspberryPi_Connectors
 62
256
370
-1
  6
ByLayer
 10
-0.7500009999999975
 20
11.4749979999999994
 30
0.0
 11
-0.7500009999999975
 21
3.874998000000005
 31
0.0
  0
LINE
  5
B8
100
AcDbEntity
100
AcDbLine
  8
RaspberryPi_Connectors
 62
256
370
-1
  6
ByLayer
 10
70.774998999999994
 20
56.5750000000000028
 30
0.0
 11
70.774998999999994
 21
56.1999989999999983
 31
0.0
  0
LINE
  5
B9
100
AcDbEntity
100
AcDbLine
  8
RaspberryPi_Connectors
 62
256
370
-1
  6
ByLayer
 10
68.2249989999999968
 20
60.0999989999999968
 30
0.0
 11
68.2249989999999968
 21
56.5750000000000028
 31
0.0
  0
LINE
  5
BA
100
AcDbEntity
100
AcDbLine
  8
RaspberryPi_Connectors
 62
256
370
-1
  6
ByLayer
 10
61.1499999999999986
 20
60.0999989999999968
 30
0.0
 11
61.1499999999999986
 21
56.5750000000000028
 31
0.0
  0
LINE
  5
BB
100
AcDbEntity
100
AcDbLine
  8
RaspberryPi_Connectors
 62
256
370
-1
  6
ByLayer
 10
58.5
 20
56.5750000000000028
 30
0.0
 11
58.5
 21
56.1999989999999983
 31
0.0
  0
LINE
  5
BC
100
AcDbEntity
100
AcDbLine
  8
RaspberryPi_Connectors
 62
256
370
-1
  6
ByLayer
 10
52.0
 20
0.0
 30
0.0
 11
52.0
 21
-1.1500010000000032
 31
0.0
  0
LINE
  5
BD
100
AcDbEntity
100
AcDbLine
  8
RaspberryPi_Connectors
 62
256
370
-1
  6
ByLayer
 10
37.0750010000000003
 20
0.0
 30
0.0
 11
37.0750010000000003
 21
-1.1500010000000032
 31
0.0
  0
LINE
  5
BE
100
AcDbEntity
100
AcDbLine
  8
RaspberryPi_Board
 62
256
370
-1
  6
ByLayer
 10
0.0000000000000071
 20
56.1999989999999983
 30
0.0
 11
0.0000000000000142
 21
0.0002989999999983
 31
0.0
  0
LINE
  5
BF
100
AcDbEntity
100
AcDbLine
  8
RaspberryPi_Board
 62
256
370
-1
  6
ByLayer
 10
0.0000000000000071
 20
56.1999989999999983
 30
0.0
 11
85.0
 21
56.1999989999999983
 31
0.0
  0
LINE
  5
C0
100
AcDbEntity
100
AcDbLine
  8
RaspberryPi_Board
 62
256
370
-1
  6
ByLayer
 10
0.0
 20
0.0
 30
0.0
 11
85.0
 21
0.0000000000000284
 31
0.0
  0
LINE
  5
C1
100
AcDbEntity
100
AcDbLine
  8
RaspberryPi_Board
 62
256
370
-1
  6
ByLayer
 10
85.0
 20
56.1999989999999983
 30
0.0
 11
85.0
 21
0.0000000000000284
 31
0.0
  0
CIRCLE
  5
C2
100
AcDbEntity
100
AcDbCircle
  8
RaspberryPi_BoardHeaders
 62
256
370
-1
  6
ByLayer
 10
1.8999990000000011
 20
53.8899990000000031
 30
0.0
 40
0.635
  0
CIRCLE
  5
C3
100
AcDbEntity
100
AcDbCircle
  8
RaspberryPi_BoardHeaders
 62
256
370
-1
  6
ByLayer
 10
1.8999990000000011
 20
51.3499989999999968
 30
0.0
 40
0.635
  0
CIRCLE
  5
C4
100
AcDbEntity
100
AcDbCircle
  8
RaspberryPi_BoardHeaders
 62
256
370
-1
  6
ByLayer
 10
4.4399990000000003
 20
53.8899990000000031
 30
0.0
 40
0.635
  0
CIRCLE
  5
C5
100
AcDbEntity
100
AcDbCircle
  8
RaspberryPi_BoardHeaders
 62
256
370
-1
  6
ByLayer
 10
4.4399990000000003
 20
51.3499989999999968
 30
0.0
 40
0.635
  0
CIRCLE
  5
C6
100
AcDbEntity
100
AcDbCircle
  8
RaspberryPi_BoardHeaders
 62
256
370
-1
  6
ByLayer
 10
6.9799989999999994
 20
53.8899990000000031
 30
0.0
 40
0.635
  0
CIRCLE
  5
C7
100
AcDbEntity
100
AcDbCircle
  8
RaspberryPi_BoardHeaders
 62
256
370
-1
  6
ByLayer
 10
6.9799989999999994
 20
51.3499989999999968
 30
0.0
 40
0.635
  0
CIRCLE
  5
C8
100
AcDbEntity
100
AcDbCircle
  8
RaspberryPi_BoardHeaders
 62
256
370
-1
  6
ByLayer
 10
9.5199989999999985
 20
53.8899990000000031
 30
0.0
 40
0.635
  0
CIRCLE
  5
C9
100
AcDbEntity
100
AcDbCircle
  8
RaspberryPi_BoardHeaders
 62
256
370
-1
  6
ByLayer
 10
9.5199989999999985
 20
51.3499989999999968
 30
0.0
 40
0.635
  0
CIRCLE
  5
CA
100
AcDbEntity
100
AcDbCircle
  8
RaspberryPi_BoardHeaders
 62
256
370
-1
  6
ByLayer
 10
12.0599989999999977
 20
53.8899990000000031
 30
0.0
 40
0.635
  0
CIRCLE
  5
CB
100
AcDbEntity
100
AcDbCircle
  8
RaspberryPi_BoardHeaders
 62
256
370
-1
  6
ByLayer
 10
12.0599989999999977
 20
51.3499989999999968
 30
0.0
 40
0.635
  0
CIRCLE
  5
CC
100
AcDbEntity
100
AcDbCircle
  8
RaspberryPi_BoardHeaders
 62
256
370
-1
  6
ByLayer
 10
14.5999990000000004
 20
53.8899990000000031
 30
0.0
 40
0.635
  0
CIRCLE
  5
CD
100
AcDbEntity
100
AcDbCircle
  8
RaspberryPi_BoardHeaders
 62
256
370
-1
  6
ByLayer
 10
14.5999990000000004
 20
51.3499989999999968
 30
0.0
 40
0.635
  0
CIRCLE
  5
CE
100
AcDbEntity
100
AcDbCircle
  8
RaspberryPi_BoardHeaders
 62
256
370
-1
  6
ByLayer
 10
17.1399989999999995
 20
53.8899990000000031
 30
0.0
 40
0.635
  0
CIRCLE
  5
CF
100
AcDbEntity
100
AcDbCircle
  8
RaspberryPi_BoardHeaders
 62
256
370
-1
  6
ByLayer
 10
17.1399989999999995
 20
51.3499989999999968
 30
0.0
 40
0.635
  0
CIRCLE
  5
D0
100
AcDbEntity
100
AcDbCircle
  8
RaspberryPi_BoardHeaders
 62
256
370
-1
  6
ByLayer
 10
19.6799989999999987
 20
53.8899990000000031
 30
0.0
 40
0.635
  0
CIRCLE
  5
D1
100
AcDbEntity
100
AcDbCircle
  8
RaspberryPi_BoardHeaders
 62
256
370
-1
  6
ByLayer
 10
19.6799989999999987
 20
51.3499989999999968
 30
0.0
 40
0.635
  0
CIRCLE
  5
D2
100
AcDbEntity
100
AcDbCircle
  8
RaspberryPi_BoardHeaders
 62
256
370
-1
  6
ByLayer
 10
22.2199990000000014
 20
53.8899990000000031
 30
0.0
 40
0.635
  0
CIRCLE
  5
D3
100
AcDbEntity
100
AcDbCircle
  8
RaspberryPi_BoardHeaders
 62
256
370
-1
  6
ByLayer
 10
22.2199990000000014
 20
51.3499989999999968
 30
0.0
 40
0.635
  0
CIRCLE
  5
D4
100
AcDbEntity
100
AcDbCircle
  8
RaspberryPi_BoardHeaders
 62
256
370
-1
  6
ByLayer
 10
24.7599990000000005
 20
53.8899990000000031
 30
0.0
 40
0.635
  0
CIRCLE
  5
D5
100
AcDbEntity
100
AcDbCircle
  8
RaspberryPi_BoardHeaders
 62
256
370
-1
  6
ByLayer
 10
24.7599990000000005
 20
51.3499989999999968
 30
0.0
 40
0.635
  0
CIRCLE
  5
D6
100
AcDbEntity
100
AcDbCircle
  8
RaspberryPi_BoardHeaders
 62
256
370
-1
  6
ByLayer
 10
27.2999989999999997
 20
53.8899990000000031
 30
0.0
 40
0.635
  0
CIRCLE
  5
D7
100
AcDbEntity
100
AcDbCircle
  8
RaspberryPi_BoardHeaders
 62
256
370
-1
  6
ByLayer
 10
27.2999989999999997
 20
51.3499989999999968
 30
0.0
 40
0.635
  0
CIRCLE
  5
D8
100
AcDbEntity
100
AcDbCircle
  8
RaspberryPi_BoardHeaders
 62
256
370
-1
  6
ByLayer
 10
29.8399989999999988
 20
53.8899990000000031
 30
0.0
 40
0.635
  0
CIRCLE
  5
D9
100
AcDbEntity
100
AcDbCircle
  8
RaspberryPi_BoardHeaders
 62
256
370
-1
  6
ByLayer
 10
29.8399989999999988
 20
51.3499989999999968
 30
0.0
 40
0.635
  0
CIRCLE
  5
DA
100
AcDbEntity
100
AcDbCircle
  8
RaspberryPi_BoardHeaders
 62
256
370
-1
  6
ByLayer
 10
32.379998999999998
 20
53.8899990000000031
 30
0.0
 40
0.635
  0
CIRCLE
  5
DB
100
AcDbEntity
100
AcDbCircle
  8
RaspberryPi_BoardHeaders
 62
256
370
-1
  6
ByLayer
 10
32.379998999999998
 20
51.3499989999999968
 30
0.0
 40
0.635
  0
MTEXT
  5
DC
100
AcDbEntity
100
AcDbMText
  8
RaspberryPi_BoardHeaders
 62
256
370
-1
  6
ByLayer
 10
9.180261999999999
 20
18.1999989999999912
 30
0.0
 40
1.0
 41
1.7777775657799999
 71
4
 72
2
  1
DSI
  7
standard
 50
90.0
 73
1
 44
1.0
  0
MTEXT
  5
DD
100
AcDbEntity
100
AcDbMText
  8
RaspberryPi_BoardHeaders
 62
256
370
-1
  6
ByLayer
 10
55.7469549999999998
 20
0.5329090000000036
 30
0.0
 40
1.0
 41
1.6666664546600001
 71
4
 72
2
  1
CSI
  7
standard
 50
90.0
 73
1
 44
1.0
  0
MTEXT
  5
DE
100
AcDbEntity
100
AcDbMText
  8
RaspberryPi_BoardHeaders
 62
256
370
-1
  6
ByLayer
 10
1.8999990000000011
 20
49.8499989999999968
 30
0.0
 40
1.0
 41
2.5555555555599998
 71
6
 72
2
  1
3.3V
  7
standard
 50
90.0
 73
1
 44
1.0
  0
MTEXT
  5
DF
100
AcDbEntity
100
AcDbMText
  8
RaspberryPi_BoardHeaders
 62
256
370
-1
  6
ByLayer
 10
4.4399990000000003
 20
49.8499989999999968
 30
0.0
 40
1.0
 41
2.44444423244
 71
6
 72
2
  1
SDA
  7
standard
 50
90.0
 73
1
 44
1.0
  0
MTEXT
  5
E0
100
AcDbEntity
100
AcDbMText
  8
RaspberryPi_BoardHeaders
 62
256
370
-1
  6
ByLayer
 10
6.9799989999999994
 20
49.8499989999999968
 30
0.0
 40
1.0
 41
2.1111108991099998
 71
6
 72
2
  1
SCL
  7
standard
 50
90.0
 73
1
 44
1.0
  0
MTEXT
  5
E1
100
AcDbEntity
100
AcDbMText
  8
RaspberryPi_BoardHeaders
 62
256
370
-1
  6
ByLayer
 10
12.0599989999999977
 20
49.8499989999999968
 30
0.0
 40
1.0
 41
2.3333333333300001
 71
6
 72
2
  1
GND
  7
standard
 50
90.0
 73
1
 44
1.0
  0
MTEXT
  5
E2
100
AcDbEntity
100
AcDbMText
  8
RaspberryPi_BoardHeaders
 62
256
370
-1
  6
ByLayer
 10
32.379998999999998
 20
49.8499989999999968
 30
0.0
 40
1.0
 41
2.3333333333300001
 71
6
 72
2
  1
GND
  7
standard
 50
90.0
 73
1
 44
1.0
  0
MTEXT
  5
E3
100
AcDbEntity
100
AcDbMText
  8
RaspberryPi_BoardHeaders
 62
256
370
-1
  6
ByLayer
 10
24.7599990000000005
 20
49.8499989999999968
 30
0.0
 40
1.0
 41
2.7777775657800001
 71
6
 72
2
  1
MOSI
  7
standard
 50
90.0
 73
1
 44
1.0
  0
MTEXT
  5
E4
100
AcDbEntity
100
AcDbMText
  8
RaspberryPi_BoardHeaders
 62
256
370
-1
  6
ByLayer
 10
27.2999989999999997
 20
49.8499989999999968
 30
0.0
 40
1.0
 41
2.7777775657800001
 71
6
 72
2
  1
MISO
  7
standard
 50
90.0
 73
1
 44
1.0
  0
MTEXT
  5
E5
100
AcDbEntity
100
AcDbMText
  8
RaspberryPi_BoardHeaders
 62
256
370
-1
  6
ByLayer
 10
29.8399989999999988
 20
49.8499989999999968
 30
0.0
 40
1.0
 41
2.9999997879999998
 71
6
 72
2
  1
SCLK
  7
standard
 50
90.0
 73
1
 44
1.0
  0
MTEXT
  5
E6
100
AcDbEntity
100
AcDbMText
  8
RaspberryPi_BoardHeaders
 62
256
370
-1
  6
ByLayer
 10
22.2199990000000014
 20
49.8499989999999968
 30
0.0
 40
1.0
 41
2.5555555555599998
 71
6
 72
2
  1
3.3V
  7
standard
 50
90.0
 73
1
 44
1.0
  0
MTEXT
  5
E7
100
AcDbEntity
100
AcDbMText
  8
RaspberryPi_BoardHeaders
 62
256
370
-1
  6
ByLayer
 10
24.7599990000000005
 20
55.3899990000000031
 30
0.0
 40
1.0
 41
2.3333333333300001
 71
4
 72
2
  1
GND
  7
standard
 50
90.0
 73
1
 44
1.0
  0
MTEXT
  5
E8
100
AcDbEntity
100
AcDbMText
  8
RaspberryPi_BoardHeaders
 62
256
370
-1
  6
ByLayer
 10
6.9799989999999994
 20
55.3899990000000031
 30
0.0
 40
1.0
 41
2.3333333333300001
 71
4
 72
2
  1
GND
  7
standard
 50
90.0
 73
1
 44
1.0
  0
MTEXT
  5
E9
100
AcDbEntity
100
AcDbMText
  8
RaspberryPi_BoardHeaders
 62
256
370
-1
  6
ByLayer
 10
17.1399989999999995
 20
55.3899990000000031
 30
0.0
 40
1.0
 41
2.3333333333300001
 71
4
 72
2
  1
GND
  7
standard
 50
90.0
 73
1
 44
1.0
  0
MTEXT
  5
EA
100
AcDbEntity
100
AcDbMText
  8
RaspberryPi_BoardHeaders
 62
256
370
-1
  6
ByLayer
 10
1.8999990000000011
 20
55.3899990000000031
 30
0.0
 40
1.0
 41
1.44444444444
 71
4
 72
2
  1
5V
  7
standard
 50
90.0
 73
1
 44
1.0
  0
MTEXT
  5
EB
100
AcDbEntity
100
AcDbMText
  8
RaspberryPi_BoardHeaders
 62
256
370
-1
  6
ByLayer
 10
4.4399990000000003
 20
55.3899990000000031
 30
0.0
 40
1.0
 41
1.44444444444
 71
4
 72
2
  1
5V
  7
standard
 50
90.0
 73
1
 44
1.0
  0
MTEXT
  5
EC
100
AcDbEntity
100
AcDbMText
  8
RaspberryPi_BoardHeaders
 62
256
370
-1
  6
ByLayer
 10
9.5199989999999985
 20
55.3899990000000031
 30
0.0
 40
1.0
 41
1.3333333333299999
 71
4
 72
2
  1
Tx
  7
standard
 50
90.0
 73
1
 44
1.0
  0
MTEXT
  5
ED
100
AcDbEntity
100
AcDbMText
  8
RaspberryPi_BoardHeaders
 62
256
370
-1
  6
ByLayer
 10
12.0599989999999977
 20
55.3899990000000031
 30
0.0
 40
1.0
 41
1.3333333333299999
 71
4
 72
2
  1
Rx
  7
standard
 50
90.0
 73
1
 44
1.0
  0
MTEXT
  5
EE
100
AcDbEntity
100
AcDbMText
  8
RaspberryPi_BoardHeaders
 62
256
370
-1
  6
ByLayer
 10
29.8399989999999988
 20
55.3899990000000031
 30
0.0
 40
1.0
 41
2.0
 71
4
 72
2
  1
CE0
  7
standard
 50
90.0
 73
1
 44
1.0
  0
MTEXT
  5
EF
100
AcDbEntity
100
AcDbMText
  8
RaspberryPi_BoardHeaders
 62
256
370
-1
  6
ByLayer
 10
32.379998999999998
 20
55.3899990000000031
 30
0.0
 40
1.0
 41
1.7777777777799999
 71
4
 72
2
  1
CE1
  7
standard
 50
90.0
 73
1
 44
1.0
  0
MTEXT
  5
F0
100
AcDbEntity
100
AcDbMText
  8
RaspberryPi_BoardHeaders
 62
256
370
-1
  6
ByLayer
 10
27.2999989999999997
 20
55.3899990000000031
 30
0.0
 40
1.0
 41
2.11111111111
 71
4
 72
2
  1
G25
  7
standard
 50
90.0
 73
1
 44
1.0
  0
MTEXT
  5
F1
100
AcDbEntity
100
AcDbMText
  8
RaspberryPi_BoardHeaders
 62
256
370
-1
  6
ByLayer
 10
22.2199990000000014
 20
55.3899990000000031
 30
0.0
 40
1.0
 41
2.2222222222200001
 71
4
 72
2
  1
G24
  7
standard
 50
90.0
 73
1
 44
1.0
  0
MTEXT
  5
F2
100
AcDbEntity
100
AcDbMText
  8
RaspberryPi_BoardHeaders
 62
256
370
-1
  6
ByLayer
 10
19.6799989999999987
 20
55.3899990000000031
 30
0.0
 40
1.0
 41
2.11111111111
 71
4
 72
2
  1
G23
  7
standard
 50
90.0
 73
1
 44
1.0
  0
MTEXT
  5
F3
100
AcDbEntity
100
AcDbMText
  8
RaspberryPi_BoardHeaders
 62
256
370
-1
  6
ByLayer
 10
14.5999990000000004
 20
55.3899990000000031
 30
0.0
 40
1.0
 41
1.88888888889
 71
4
 72
2
  1
G18
  7
standard
 50
90.0
 73
1
 44
1.0
  0
MTEXT
  5
F4
100
AcDbEntity
100
AcDbMText
  8
RaspberryPi_BoardHeaders
 62
256
370
-1
  6
ByLayer
 10
9.5199989999999985
 20
49.8499989999999968
 30
0.0
 40
1.0
 41
1.44444444444
 71
6
 72
2
  1
G4
  7
standard
 50
90.0
 73
1
 44
1.0
  0
MTEXT
  5
F5
100
AcDbEntity
100
AcDbMText
  8
RaspberryPi_BoardHeaders
 62
256
370
-1
  6
ByLayer
 10
14.5999990000000004
 20
49.8499989999999968
 30
0.0
 40
1.0
 41
1.88888888889
 71
6
 72
2
  1
G17
  7
standard
 50
90.0
 73
1
 44
1.0
  0
MTEXT
  5
F6
100
AcDbEntity
100
AcDbMText
  8
RaspberryPi_BoardHeaders
 62
256
370
-1
  6
ByLayer
 10
19.6799989999999987
 20
49.8499989999999968
 30
0.0
 40
1.0
 41
2.11111111111
 71
6
 72
2
  1
G22
  7
standard
 50
90.0
 73
1
 44
1.0
  0
MTEXT
  5
F7
100
AcDbEntity
100
AcDbMText
  8
RaspberryPi_BoardHeaders
 62
256
370
-1
  6
ByLayer
 10
17.1399989999999995
 20
49.8499989999999968
 30
0.0
 40
1.0
 41
4.2222222222200001
 71
6
 72
2
  1
G21/27
  7
standard
 50
90.0
 73
1
 44
1.0
  0
ENDBLK
  5
F8
100
AcDbEntity
  8
0
100
AcDbBlockEnd
  0
BLOCK
  5
F9
100
AcDbEntity
  8
0
100
AcDbBlockBegin
  2
GearedMotor-0
 70
0
 10
0.0
 20
0.0
 30
0.0
  3
GearedMotor-0
  1

  0
CIRCLE
  5
FA
100
AcDbEntity
100
AcDbCircle
  8
GearedMotor_MouningHoles
 62
256
370
-1
  6
ByLayer
 10
-17.5
 20
14.0
 30
0.0
 40
2.0
  0
CIRCLE
  5
FB
100
AcDbEntity
100
AcDbCircle
  8
GearedMotor_MouningHoles
 62
256
370
-1
  6
ByLayer
 10
-17.5
 20
-14.0
 30
0.0
 40
2.0
  0
CIRCLE
  5
FC
100
AcDbEntity
100
AcDbCircle
  8
GearedMotor_MouningHoles
 62
256
370
-1
  6
ByLayer
 10
17.5
 20
-14.0
 30
0.0
 40
2.0
  0
CIRCLE
  5
FD
100
AcDbEntity
100
AcDbCircle
  8
GearedMotor_MouningHoles
 62
256
370
-1
  6
ByLayer
 10
17.5
 20
14.0
 30
0.0
 40
2.0
  0
LINE
  5
FE
100
AcDbEntity
100
AcDbLine
  8
GearedMotor_Plate
 62
256
370
-1
  6
ByLayer
 10
-20.5
 20
17.5
 30
0.0
 11
20.5
 21
17.5
 31
0.0
  0
LINE
  5
FF
100
AcDbEntity
100
AcDbLine
  8
GearedMotor_Plate
 62
256
370
-1
  6
ByLayer
 10
-20.5
 20
-17.5
 30
0.0
 11
20.5
 21
-17.5
 31
0.0
  0
LINE
  5
100
100
AcDbEntity
100
AcDbLine
  8
GearedMotor_Plate
 62
256
370
-1
  6
ByLayer
 10
-20.5
 20
17.5
 30
0.0
 11
-20.5
 21
-17.5
 31
0.0
  0
LINE
  5
101
100
AcDbEntity
100
AcDbLine
  8
GearedMotor_Plate
 62
256
370
-1
  6
ByLayer
 10
20.5
 20
17.5
 30
0.0
 11
20.5
 21
-17.5
 31
0.0
  0
LINE
  5
102
100
AcDbEntity
100
AcDbLine
  8
GearedMotor_Gearbox
 62
256
370
-1
  6
ByLayer
 10
-20.0
 20
49.5
 30
0.0
 11
20.0
 21
49.5
 31
0.0
  0
LINE
  5
103
100
AcDbEntity
100
AcDbLine
  8
GearedMotor_Gearbox
 62
256
370
-1
  6
ByLayer
 10
-20.0
 20
17.5
 30
0.0
 11
20.0
 21
17.5
 31
0.0
  0
LINE
  5
104
100
AcDbEntity
100
AcDbLine
  8
GearedMotor_Gearbox
 62
256
370
-1
  6
ByLayer
 10
-20.0
 20
49.5
 30
0.0
 11
-20.0
 21
17.5
 31
0.0
  0
LINE
  5
105
100
AcDbEntity
100
AcDbLine
  8
GearedMotor_Gearbox
 62
256
370
-1
  6
ByLayer
 10
20.0
 20
49.5
 30
0.0
 11
20.0
 21
17.5
 31
0.0
  0
LINE
  5
106
100
AcDbEntity
100
AcDbLine
  8
GearedMotor_Gearbox
 62
256
370
-1
  6
ByLayer
 10
0.0
 20
17.5
 30
0.0
 11
0.0
 21
17.5
 31
0.0
  0
ENDBLK
  5
107
100
AcDbEntity
  8
0
100
AcDbBlockEnd
  0
BLOCK
  5
108
100
AcDbEntity
  8
0
100
AcDbBlockBegin
  2
Castor30mm-0
 70
0
 10
0.0
 20
0.0
 30
0.0
  3
Castor30mm-0
  1

  0
CIRCLE
  5
109
100
AcDbEntity
100
AcDbCircle
  8
Castor_MountingHoles
 62
256
370
-1
  6
ByLayer
 10
-15.0
 20
15.0
 30
0.0
 40
2.5
  0
CIRCLE
  5
10A
100
AcDbEntity
100
AcDbCircle
  8
Castor_MountingHoles
 62
256
370
-1
  6
ByLayer
 10
15.0
 20
15.0
 30
0.0
 40
2.5
  0
CIRCLE
  5
10B
100
AcDbEntity
100
AcDbCircle
  8
Castor_MountingHoles
 62
256
370
-1
  6
ByLayer
 10
14.9999999999999982
 20
-15.0
 30
0.0
 40
2.5
  0
CIRCLE
  5
10C
100
AcDbEntity
100
AcDbCircle
  8
Castor_MountingHoles
 62
256
370
-1
  6
ByLayer
 10
-15.0000000000000018
 20
-15.0
 30
0.0
 40
2.5
  0
LINE
  5
10D
100
AcDbEntity
100
AcDbLine
  8
Castor_Plate
 62
256
370
-1
  6
ByLayer
 10
-21.0
 20
21.0
 30
0.0
 11
21.0
 21
21.0
 31
0.0
  0
LINE
  5
10E
100
AcDbEntity
100
AcDbLine
  8
Castor_Plate
 62
256
370
-1
  6
ByLayer
 10
-21.0
 20
-21.0
 30
0.0
 11
21.0
 21
-21.0
 31
0.0
  0
LINE
  5
10F
100
AcDbEntity
100
AcDbLine
  8
Castor_Plate
 62
256
370
-1
  6
ByLayer
 10
-21.0
 20
21.0
 30
0.0
 11
-21.0
 21
-21.0
 31
0.0
  0
LINE
  5
110
100
AcDbEntity
100
AcDbLine
  8
Castor_Plate
 62
256
370
-1
  6
ByLayer
 10
21.0
 20
21.0
 30
0.0
 11
21.0
 21
-21.0
 31
0.0
  0
ENDBLK
  5
111
100
AcDbEntity
  8
0
100
AcDbBlockEnd
  0
ENDSEC
  0
SECTION
  2
ENTITIES
  0
INSERT
  5
112
100
AcDbEntity
100
AcDbBlockReference
  8
0
 62
256
370
-1
  6
ByLayer
  2
eBay_RelayBoard-0
 10
0.0
 20
0.0
 30
0.0
 50
90.0
  0
INSERT
  5
113
100
AcDbEntity
100
AcDbBlockReference
  8
0
 62
256
370
-1
  6
ByLayer
  2
RaspberryPi-0
 10
60.0
 20
100.0
 30
0.0
 50
180.0
  0
LINE
  5
114
100
AcDbEntity
100
AcDbLine
  8
ArmMountings
 62
256
370
-1
  6
ByLayer
 10
-36.0000000000000142
 20
110.0
 30
0.0
 11
-32.9999999999999858
 21
110.0
 31
0.0
  0
LINE
  5
115
100
AcDbEntity
100
AcDbLine
  8
ArmMountings
 62
256
370
-1
  6
ByLayer
 10
-35.9999999999999858
 20
150.0
 30
0.0
 11
-33.0
 21
150.0
 31
0.0
  0
LINE
  5
116
100
AcDbEntity
100
AcDbLine
  8
ArmMountings
 62
256
370
-1
  6
ByLayer
 10
-35.9999999999999929
 20
140.0
 30
0.0
 11
-32.9999999999999929
 21
140.0
 31
0.0
  0
LINE
  5
117
100
AcDbEntity
100
AcDbLine
  8
ArmMountings
 62
256
370
-1
  6
ByLayer
 10
-36.0
 20
120.0
 30
0.0
 11
-33.0
 21
120.0
 31
0.0
  0
LINE
  5
118
100
AcDbEntity
100
AcDbLine
  8
ArmMountings
 62
256
370
-1
  6
ByLayer
 10
-32.9999999999999858
 20
110.0
 30
0.0
 11
-33.0
 21
120.0
 31
0.0
  0
LINE
  5
119
100
AcDbEntity
100
AcDbLine
  8
ArmMountings
 62
256
370
-1
  6
ByLayer
 10
-32.9999999999999929
 20
140.0
 30
0.0
 11
-33.0
 21
150.0
 31
0.0
  0
LINE
  5
11A
100
AcDbEntity
100
AcDbLine
  8
ArmMountings
 62
256
370
-1
  6
ByLayer
 10
-36.0000000000000142
 20
110.0
 30
0.0
 11
-36.0
 21
120.0
 31
0.0
  0
LINE
  5
11B
100
AcDbEntity
100
AcDbLine
  8
ArmMountings
 62
256
370
-1
  6
ByLayer
 10
-35.9999999999999929
 20
140.0
 30
0.0
 11
-35.9999999999999858
 21
150.0
 31
0.0
  0
CIRCLE
  5
11C
100
AcDbEntity
100
AcDbCircle
  8
ArmMountings
 62
256
370
-1
  6
ByLayer
 10
-34.5
 20
130.0
 30
0.0
 40
2.0
  0
LINE
  5
11D
100
AcDbEntity
100
AcDbLine
  8
ArmMountings
 62
256
370
-1
  6
ByLayer
 10
32.9999999999999858
 20
110.0
 30
0.0
 11
36.0000000000000071
 21
110.0
 31
0.0
  0
LINE
  5
11E
100
AcDbEntity
100
AcDbLine
  8
ArmMountings
 62
256
370
-1
  6
ByLayer
 10
33.0000000000000071
 20
150.0
 30
0.0
 11
36.0
 21
150.0
 31
0.0
  0
LINE
  5
11F
100
AcDbEntity
100
AcDbLine
  8
ArmMountings
 62
256
370
-1
  6
ByLayer
 10
33.0
 20
140.0
 30
0.0
 11
36.0
 21
140.0
 31
0.0
  0
LINE
  5
120
100
AcDbEntity
100
AcDbLine
  8
ArmMountings
 62
256
370
-1
  6
ByLayer
 10
33.0
 20
120.0
 30
0.0
 11
36.0
 21
120.0
 31
0.0
  0
LINE
  5
121
100
AcDbEntity
100
AcDbLine
  8
ArmMountings
 62
256
370
-1
  6
ByLayer
 10
36.0000000000000071
 20
110.0
 30
0.0
 11
36.0
 21
120.0
 31
0.0
  0
LINE
  5
122
100
AcDbEntity
100
AcDbLine
  8
ArmMountings
 62
256
370
-1
  6
ByLayer
 10
36.0
 20
140.0
 30
0.0
 11
36.0
 21
150.0
 31
0.0
  0
LINE
  5
123
100
AcDbEntity
100
AcDbLine
  8
ArmMountings
 62
256
370
-1
  6
ByLayer
 10
32.9999999999999858
 20
110.0
 30
0.0
 11
33.0
 21
120.0
 31
0.0
  0
LINE
  5
124
100
AcDbEntity
100
AcDbLine
  8
ArmMountings
 62
256
370
-1
  6
ByLayer
 10
33.0
 20
140.0
 30
0.0
 11
33.0000000000000071
 21
150.0
 31
0.0
  0
CIRCLE
  5
125
100
AcDbEntity
100
AcDbCircle
  8
ArmMountings
 62
256
370
-1
  6
ByLayer
 10
34.5
 20
130.0
 30
0.0
 40
2.0
  0
INSERT
  5
126
100
AcDbEntity
100
AcDbBlockReference
  8
ArmMountings
 62
256
370
-1
  6
ByLayer
  2
GearedMotor-0
 10
-60.0
 20
0.0
 30
0.0
 50
90.0
  0
INSERT
  5
127
100
AcDbEntity
100
AcDbBlockReference
  8
ArmMountings
 62
256
370
-1
  6
ByLayer
  2
GearedMotor-0
 10
59.9999999999999929
 20
-0.0000000000000195
 30
0.0
 41
1.0
 42
-1.0
 43
1.0
 50
90.0
  0
LINE
  5
128
100
AcDbEntity
100
AcDbLine
  8
PanelOuter
 62
256
370
-1
  6
ByLayer
 10
60.0
 20
-40.0
 30
0.0
 11
-60.0
 21
-40.0
 31
0.0
  0
LINE
  5
129
100
AcDbEntity
100
AcDbLine
  8
PanelOuter
 62
256
370
-1
  6
ByLayer
 10
-80.0
 20
-20.0
 30
0.0
 11
-80.0
 21
110.0
 31
0.0
  0
LINE
  5
12A
100
AcDbEntity
100
AcDbLine
  8
PanelOuter
 62
256
370
-1
  6
ByLayer
 10
-30.0000000000000071
 20
160.0
 30
0.0
 11
29.9999999999999929
 21
160.0
 31
0.0
  0
LINE
  5
12B
100
AcDbEntity
100
AcDbLine
  8
PanelOuter
 62
256
370
-1
  6
ByLayer
 10
80.0
 20
110.0
 30
0.0
 11
80.0
 21
-20.0
 31
0.0
  0
INSERT
  5
12C
100
AcDbEntity
100
AcDbBlockReference
  8
0
 62
256
370
-1
  6
ByLayer
  2
Castor30mm-0
 10
0.0
 20
130.0
 30
0.0
  0
ARC
  5
12D
100
AcDbEntity
  8
PanelOuter
 62
256
370
-1
  6
ByLayer
100
AcDbCircle
 10
-60.0
 20
-20.0
 30
0.0
 40
20.0
100
AcDbArc
 50
180.0
 51
270.0
  0
ARC
  5
12E
100
AcDbEntity
  8
PanelOuter
 62
256
370
-1
  6
ByLayer
100
AcDbCircle
 10
60.0
 20
-20.0
 30
0.0
 40
20.0
100
AcDbArc
 50
270.0
 51
0.0
  0
ARC
  5
12F
100
AcDbEntity
  8
PanelOuter
 62
256
370
-1
  6
ByLayer
100
AcDbCircle
 10
-30.0000000000000071
 20
110.0
 30
0.0
 40
50.0
100
AcDbArc
 50
90.0
 51
180.0
  0
ARC
  5
130
100
AcDbEntity
  8
PanelOuter
 62
256
370
-1
  6
ByLayer
100
AcDbCircle
 10
29.9999999999999893
 20
110.0
 30
0.0
 40
50.0
100
AcDbArc
 50
0.0
 51
90.0
  0
ENDSEC
  0
SECTION
  2
OBJECTS
  0
DICTIONARY
  5
C
100
AcDbDictionary
280
0
281
1
  3
ACAD_GROUP
350
D
  3
ACAD_LAYOUT
350
1A
  3
ACAD_MLINESTYLE
350
17
  3
ACAD_PLOTSETTINGS
350
19
  3
ACAD_PLOTSTYLENAME
350
E
  3
AcDbVariableDictionary
350
131
  0
DICTIONARY
  5
D
100
AcDbDictionary
280
0
281
1
  0
ACDBDICTIONARYWDFLT
  5
E
100
AcDbDictionary
281
1
  3
Normal
350
F
100
AcDbDictionaryWithDefault
340
F
  0
ACDBPLACEHOLDER
  5
F
  0
DICTIONARY
  5
17
100
AcDbDictionary
280
0
281
1
  3
Standard
350
18
  0
MLINESTYLE
  5
18
100
AcDbMlineStyle
  2
STANDARD
 70
0
  3

 62
256
 51
90.0
 52
90.0
 71
2
 49
0.5
 62
256
  6
BYLAYER
 49
-0.5
 62
256
  6
BYLAYER
  0
DICTIONARY
  5
19
100
AcDbDictionary
280
0
281
1
  0
DICTIONARY
  5
1A
100
AcDbDictionary
281
1
  3
Layout1
350
1E
  3
Layout2
350
26
  3
Model
350
22
  0
LAYOUT
  5
1E
100
AcDbPlotSettings
  1

  2
C:\Program Files\AutoCAD 2002\plotters\DWF ePlot (optimized for plotting).pc3
  4

  6

 40
0.0
 41
0.0
 42
0.0
 43
0.0
 44
0.0
 45
0.0
 46
0.0
 47
0.0
 48
0.0
 49
0.0
140
0.0
141
0.0
142
1.0
143
1.0
 70
688
 72
0
 73
0
 74
5
  7

 75
16
147
1.0
148
0.0
149
0.0
100
AcDbLayout
  1
Layout1
 70
1
 71
1
 10
0.0
 20
0.0
 11
420.0
 21
297.0
 12
0.0
 22
0.0
 32
0.0
 14
100000000000000000000.0
 24
100000000000000000000.0
 34
100000000000000000000.0
 15
-100000000000000000000.0
 25
-100000000000000000000.0
 35
-100000000000000000000.0
146
0.0
 13
0.0
 23
0.0
 33
0.0
 16
1.0
 26
0.0
 36
0.0
 17
0.0
 27
1.0
 37
0.0
 76
0
330
1B
  0
LAYOUT
  5
22
100
AcDbPlotSettings
  1

  2
C:\Program Files\AutoCAD 2002\plotters\DWF ePlot (optimized for plotting).pc3
  4

  6

 40
0.0
 41
0.0
 42
0.0
 43
0.0
 44
0.0
 45
0.0
 46
0.0
 47
0.0
 48
0.0
 49
0.0
140
0.0
141
0.0
142
1.0
143
1.0
 70
1712
 72
0
 73
0
 74
0
  7

 75
0
147
1.0
148
0.0
149
0.0
100
AcDbLayout
  1
Model
 70
1
 71
0
 10
0.0
 20
0.0
 11
12.0
 21
9.0
 12
0.0
 22
0.0
 32
0.0
 14
0.0
 24
0.0
 34
0.0
 15
0.0
 25
0.0
 35
0.0
146
0.0
 13
0.0
 23
0.0
 33
0.0
 16
1.0
 26
0.0
 36
0.0
 17
0.0
 27
1.0
 37
0.0
 76
0
330
1F
  0
LAYOUT
  5
26
100
AcDbPlotSettings
  1

  2
C:\Program Files\AutoCAD 2002\plotters\DWF ePlot (optimized for plotting).pc3
  4

  6

 40
0.0
 41
0.0
 42
0.0
 43
0.0
 44
0.0
 45
0.0
 46
0.0
 47
0.0
 48
0.0
 49
0.0
140
0.0
141
0.0
142
1.0
143
1.0
 70
688
 72
0
 73
0
 74
5
  7

 75
16
147
1.0
148
0.0
149
0.0
100
AcDbLayout
  1
Layout2
 70
1
 71
2
 10
0.0
 20
0.0
 11
12.0
 21
9.0
 12
0.0
 22
0.0
 32
0.0
 14
0.0
 24
0.0
 34
0.0
 15
0.0
 25
0.0
 35
0.0
146
0.0
 13
0.0
 23
0.0
 33
0.0
 16
1.0
 26
0.0
 36
0.0
 17
0.0
 27
1.0
 37
0.0
 76
0
330
23
  0
DICTIONARY
  5
131
100
AcDbDictionary
281
1
  3
DIMASSOC
350
133
  3
HIDETEXT
350
132
  0
DICTIONARYVAR
  5
132
100
DictionaryVariables
280
0
  1
2
  0
DICTIONARYVAR
  5
133
100
DictionaryVariables
280
0
  1
1
  0
ENDSEC
  0
EOF
