999
dxfrw 0.5.4
0
SECTION
2
HEADER
9
$ACADVER
1
AC1021
9
$HANDSEED
5
20000
9
$DWGCODEPAGE
3
ANSI_1252
9
$INSBASE
10
0
20
0
30
0
9
$EXTMIN
10
1e+020
20
1e+020
30
1e+020
9
$EXTMAX
10
-1e+020
20
-1e+020
30
-1e+020
9
$LIMMIN
10
0
20
0
9
$LIMMAX
10
420
20
297
9
$ORTHOMODE
70
0
9
$LTSCALE
40
1
9
$TEXTSTYLE
7
STANDARD
9
$DIMASZ
40
2.5
9
$DIMEXO
40
0.625
9
$DIMEXE
40
1.25
9
$DIMTXT
40
2.5
9
$DIMTSZ
40
0
9
$DIMAUNIT
70
0
9
$DIMADEC
70
0
9
$DIMSTYLE
2
Standard
9
$DIMGAP
40
0.625
9
$DIMTIH
70
0
9
$LUNITS
70
2
9
$LUPREC
70
4
9
$AUNITS
70
0
9
$AUPREC
70
2
9
$SPLINESEGS
70
8
9
$GRIDMODE
70
1
9
$SNAPSTYLE
70
0
9
$PINSBASE
10
0
20
0
30
0
9
$PLIMMIN
10
0
20
0
9
$PLIMMAX
10
210
20
297
9
$INSUNITS
70
4
9
$PSVPSCALE
40
0
0
ENDSEC
0
SECTION
2
CLASSES
0
ENDSEC
0
SECTION
2
TABLES
0
TABLE
2
VPORT
5
8
330
0
100
AcDbSymbolTable
70
1
0
VPORT
5
31
330
2
100
AcDbSymbolTableRecord
100
AcDbViewportTableRecord
2
*ACTIVE
70
0
10
0
20
0
11
1
21
1
12
91.0395403315
22
44.1762651934
13
0
23
0
14
10
24
10
15
10
25
10
16
0
26
0
36
1
17
0
27
0
37
0
40
67.7673016575
41
1.75134408602
42
50
43
0
44
0
50
0
51
0
71
0
72
100
73
1
74
3
75
0
76
1
77
0
78
0
281
0
65
1
110
0
120
0
130
0
111
1
121
0
131
0
112
0
122
1
132
0
79
0
146
0
348
10020
60
7
61
5
292
1
282
1
141
0
142
0
63
250
421
3358443
0
ENDTAB
0
TABLE
2
LTYPE
5
5
330
0
100
AcDbSymbolTable
70
4
0
LTYPE
5
14
330
5
100
AcDbSymbolTableRecord
100
AcDbLinetypeTableRecord
2
ByBlock
70
0
3

72
65
73
0
40
0
0
LTYPE
5
15
330
5
100
AcDbSymbolTableRecord
100
AcDbLinetypeTableRecord
2
ByLayer
70
0
3

72
65
73
0
40
0
0
LTYPE
5
16
330
5
100
AcDbSymbolTableRecord
100
AcDbLinetypeTableRecord
2
Continuous
70
0
3
Solid line
72
65
73
0
40
0
0
LTYPE
5
32
330
5
100
AcDbSymbolTableRecord
100
AcDbLinetypeTableRecord
2
DOT
70
0
3
Dot . . . . . . . . . . . . . . . . . . . . . .
72
65
73
2
40
6.35
49
0
74
0
49
-6.35
74
0
0
LTYPE
5
33
330
5
100
AcDbSymbolTableRecord
100
AcDbLinetypeTableRecord
2
DOT2
70
0
3
Dot (.5x) .....................................
72
65
73
2
40
3.175
49
0
74
0
49
-3.175
74
0
0
LTYPE
5
34
330
5
100
AcDbSymbolTableRecord
100
AcDbLinetypeTableRecord
2
DOTX2
70
0
3
Dot (2x) .  .  .  .  .  .  .  .  .  .  .  .  .
72
65
73
2
40
12.7
49
0
74
0
49
-12.7
74
0
0
LTYPE
5
35
330
5
100
AcDbSymbolTableRecord
100
AcDbLinetypeTableRecord
2
DASHED
70
0
3
Dot . . . . . . . . . . . . . . . . . . . . . .
72
65
73
2
40
19.05
49
12.7
74
0
49
-6.35
74
0
0
LTYPE
5
36
330
5
100
AcDbSymbolTableRecord
100
AcDbLinetypeTableRecord
2
DASHED2
70
0
3
Dashed (.5x) _ _ _ _ _ _ _ _ _ _ _ _ _ _ _ _ _
72
65
73
2
40
9.525
49
6.35
74
0
49
-3.175
74
0
0
LTYPE
5
37
330
5
100
AcDbSymbolTableRecord
100
AcDbLinetypeTableRecord
2
DASHEDX2
70
0
3
Dashed (2x) ____  ____  ____  ____  ____  ___
72
65
73
2
40
38.1
49
25.4
74
0
49
-12.7
74
0
0
LTYPE
5
38
330
5
100
AcDbSymbolTableRecord
100
AcDbLinetypeTableRecord
2
DASHDOT
70
0
3
Dash dot __ . __ . __ . __ . __ . __ . __ . __
72
65
73
4
40
25.4
49
12.7
74
0
49
-6.35
74
0
49
0
74
0
49
-6.35
74
0
0
LTYPE
5
39
330
5
100
AcDbSymbolTableRecord
100
AcDbLinetypeTableRecord
2
DASHDOT2
70
0
3
Dash dot (.5x) _._._._._._._._._._._._._._._.
72
65
73
4
40
12.7
49
6.35
74
0
49
-3.175
74
0
49
0
74
0
49
-3.175
74
0
0
LTYPE
5
3A
330
5
100
AcDbSymbolTableRecord
100
AcDbLinetypeTableRecord
2
DASHDOTX2
70
0
3
Dash dot (2x) ____  .  ____  .  ____  .  ___
72
65
73
4
40
50.8
49
25.4
74
0
49
-12.7
74
0
49
0
74
0
49
-12.7
74
0
0
LTYPE
5
3B
330
5
100
AcDbSymbolTableRecord
100
AcDbLinetypeTableRecord
2
DIVIDE
70
0
3
Divide ____ . . ____ . . ____ . . ____ . . ____
72
65
73
6
40
31.75
49
12.7
74
0
49
-6.35
74
0
49
0
74
0
49
-6.35
74
0
49
0
74
0
49
-6.35
74
0
0
LTYPE
5
3C
330
5
100
AcDbSymbolTableRecord
100
AcDbLinetypeTableRecord
2
DIVIDE2
70
0
3
Divide (.5x) __..__..__..__..__..__..__..__.._
72
65
73
6
40
15.875
49
6.35
74
0
49
-3.175
74
0
49
0
74
0
49
-3.175
74
0
49
0
74
0
49
-3.175
74
0
0
LTYPE
5
3D
330
5
100
AcDbSymbolTableRecord
100
AcDbLinetypeTableRecord
2
DIVIDEX2
70
0
3
Divide (2x) ________  .  .  ________  .  .  _
72
65
73
6
40
63.5
49
25.4
74
0
49
-12.7
74
0
49
0
74
0
49
-12.7
74
0
49
0
74
0
49
-12.7
74
0
0
LTYPE
5
3E
330
5
100
AcDbSymbolTableRecord
100
AcDbLinetypeTableRecord
2
BORDER
70
0
3
Border __ __ . __ __ . __ __ . __ __ . __ __ .
72
65
73
6
40
44.45
49
12.7
74
0
49
-6.35
74
0
49
12.7
74
0
49
-6.35
74
0
49
0
74
0
49
-6.35
74
0
0
LTYPE
5
3F
330
5
100
AcDbSymbolTableRecord
100
AcDbLinetypeTableRecord
2
BORDER2
70
0
3
Border (.5x) __.__.__.__.__.__.__.__.__.__.__.
72
65
73
6
40
22.225
49
6.35
74
0
49
-3.175
74
0
49
6.35
74
0
49
-3.175
74
0
49
0
74
0
49
-3.175
74
0
0
LTYPE
5
40
330
5
100
AcDbSymbolTableRecord
100
AcDbLinetypeTableRecord
2
BORDERX2
70
0
3
Border (2x) ____  ____  .  ____  ____  .  ___
72
65
73
6
40
88.9
49
25.4
74
0
49
-12.7
74
0
49
25.4
74
0
49
-12.7
74
0
49
0
74
0
49
-12.7
74
0
0
LTYPE
5
41
330
5
100
AcDbSymbolTableRecord
100
AcDbLinetypeTableRecord
2
CENTER
70
0
3
Center ____ _ ____ _ ____ _ ____ _ ____ _ ____
72
65
73
4
40
50.8
49
31.75
74
0
49
-6.35
74
0
49
6.35
74
0
49
-6.35
74
0
0
LTYPE
5
42
330
5
100
AcDbSymbolTableRecord
100
AcDbLinetypeTableRecord
2
CENTER2
70
0
3
Center (.5x) ___ _ ___ _ ___ _ ___ _ ___ _ ___
72
65
73
4
40
28.575
49
19.05
74
0
49
-3.175
74
0
49
3.175
74
0
49
-3.175
74
0
0
LTYPE
5
43
330
5
100
AcDbSymbolTableRecord
100
AcDbLinetypeTableRecord
2
CENTERX2
70
0
3
Center (2x) ________  __  ________  __  _____
72
65
73
4
40
101.6
49
63.5
74
0
49
-12.7
74
0
49
12.7
74
0
49
-12.7
74
0
0
ENDTAB
0
TABLE
2
LAYER
5
2
330
0
100
AcDbSymbolTable
70
1
0
LAYER
5
10
330
2
100
AcDbSymbolTableRecord
100
AcDbLayerTableRecord
2
0
70
0
62
7
6
CONTINUOUS
370
0
390
F
0
LAYER
5
44
330
2
100
AcDbSymbolTableRecord
100
AcDbLayerTableRecord
2
Wiring
70
0
62
7
6
CONTINUOUS
370
0
390
F
0
ENDTAB
0
TABLE
2
STYLE
5
3
330
0
100
AcDbSymbolTable
70
3
0
STYLE
5
45
330
2
100
AcDbSymbolTableRecord
100
AcDbTextStyleTableRecord
2
iso
70
0
40
0
41
1
50
0
71
0
42
1
3
iso
4

0
STYLE
5
46
330
2
100
AcDbSymbolTableRecord
100
AcDbTextStyleTableRecord
2
Standard
70
0
40
0
41
1
50
0
71
0
42
1
3
txt
4

0
ENDTAB
0
TABLE
2
VIEW
5
6
330
0
100
AcDbSymbolTable
70
0
0
ENDTAB
0
TABLE
2
UCS
5
7
330
0
100
AcDbSymbolTable
70
0
0
ENDTAB
0
TABLE
2
APPID
5
9
330
0
100
AcDbSymbolTable
70
1
0
APPID
5
12
330
9
100
AcDbSymbolTableRecord
100
AcDbRegAppTableRecord
2
ACAD
70
0
0
ENDTAB
0
TABLE
2
DIMSTYLE
5
A
330
0
100
AcDbSymbolTable
70
1
100
AcDbDimStyleTable
71
1
0
DIMSTYLE
105
47
330
A
100
AcDbSymbolTableRecord
100
AcDbDimStyleTableRecord
2
Standard
70
0
40
1
41
2.5
42
0.625
43
0.38
44
1.25
45
0
46
0
47
0
48
0
140
2.5
141
0.09
142
0
143
25.4
144
1
145
0
146
1
147
0.625
148
0
71
0
72
0
73
0
74
1
75
0
76
0
77
0
78
0
79
0
170
0
171
2
172
0
173
0
174
0
175
0
176
0
177
0
178
0
179
0
271
4
272
4
273
2
274
2
275
0
276
0
277
2
278
46
279
0
280
0
281
0
282
0
283
1
284
0
285
0
286
0
288
0
289
3
340
Standard
341

371
-2
372
-2
0
ENDTAB
0
TABLE
2
BLOCK_RECORD
5
1
330
0
100
AcDbSymbolTable
70
2
0
BLOCK_RECORD
5
1F
330
1
100
AcDbSymbolTableRecord
100
AcDbBlockTableRecord
2
*Model_Space
70
0
280
1
281
0
0
BLOCK_RECORD
5
1E
330
1
100
AcDbSymbolTableRecord
100
AcDbBlockTableRecord
2
*Paper_Space
70
0
280
1
281
0
0
BLOCK_RECORD
5
48
330
1
100
AcDbSymbolTableRecord
100
AcDbBlockTableRecord
2
Amplifier
70
0
280
1
281
0
0
BLOCK_RECORD
5
4B
330
1
100
AcDbSymbolTableRecord
100
AcDbBlockTableRecord
2
StereoPot
70
0
280
1
281
0
0
BLOCK_RECORD
5
4E
330
1
100
AcDbSymbolTableRecord
100
AcDbBlockTableRecord
2
Speaker
70
0
280
1
281
0
0
BLOCK_RECORD
5
51
330
1
100
AcDbSymbolTableRecord
100
AcDbBlockTableRecord
2
Switch
70
0
280
1
281
0
0
BLOCK_RECORD
5
54
330
1
100
AcDbSymbolTableRecord
100
AcDbBlockTableRecord
2
Fuse
70
0
280
1
281
0
0
BLOCK_RECORD
5
57
330
1
100
AcDbSymbolTableRecord
100
AcDbBlockTableRecord
2
DC-DC_Converter
70
0
280
1
281
0
0
BLOCK_RECORD
5
5A
330
1
100
AcDbSymbolTableRecord
100
AcDbBlockTableRecord
2
Battery
70
0
280
1
281
0
0
BLOCK_RECORD
5
5D
330
1
100
AcDbSymbolTableRecord
100
AcDbBlockTableRecord
2
Junction
70
0
280
1
281
0
0
BLOCK_RECORD
5
60
330
1
100
AcDbSymbolTableRecord
100
AcDbBlockTableRecord
2
RaspPi
70
0
280
1
281
0
0
ENDTAB
0
ENDSEC
0
SECTION
2
BLOCKS
0
BLOCK
5
20
330
1F
100
AcDbEntity
8
0
100
AcDbBlockBegin
2
*Model_Space
70
0
10
0
20
0
30
0
3
*Model_Space
1

0
ENDBLK
5
21
330
1F
100
AcDbEntity
8
0
100
AcDbBlockEnd
0
BLOCK
5
1C
330
1B
100
AcDbEntity
8
0
100
AcDbBlockBegin
2
*Paper_Space
70
0
10
0
20
0
30
0
3
*Paper_Space
1

0
ENDBLK
5
1D
330
1F
100
AcDbEntity
8
0
100
AcDbBlockEnd
0
BLOCK
5
49
330
48
100
AcDbEntity
8
0
100
AcDbBlockBegin
2
Amplifier
70
0
10
0
20
0
3
Amplifier
1

0
LINE
5
63
100
AcDbEntity
8
0
6
ByLayer
62
256
370
-1
100
AcDbLine
10
0
20
30
11
60
21
30
0
LINE
5
64
100
AcDbEntity
8
0
6
ByLayer
62
256
370
-1
100
AcDbLine
10
60
20
30
11
60
21
0
0
LINE
5
65
100
AcDbEntity
8
0
6
ByLayer
62
256
370
-1
100
AcDbLine
10
60
20
0
11
0
21
0
0
LINE
5
66
100
AcDbEntity
8
0
6
ByLayer
62
256
370
-1
100
AcDbLine
10
0
20
0
11
0
21
30
0
LINE
5
67
100
AcDbEntity
8
0
6
ByLayer
62
256
370
-1
100
AcDbLine
10
10
20
0
11
10
21
-5
0
LINE
5
68
100
AcDbEntity
8
0
6
ByLayer
62
256
370
-1
100
AcDbLine
10
20
20
0
11
20
21
-5
0
LINE
5
69
100
AcDbEntity
8
0
6
ByLayer
62
256
370
-1
100
AcDbLine
10
30
20
0
11
30
21
-5
0
LINE
5
6A
100
AcDbEntity
8
0
6
ByLayer
62
256
370
-1
100
AcDbLine
10
40
20
0
11
40
21
-5
0
LINE
5
6B
100
AcDbEntity
8
0
6
ByLayer
62
256
370
-1
100
AcDbLine
10
50
20
0
11
50
21
-5
0
MTEXT
5
6C
100
AcDbEntity
8
0
6
ByLayer
62
256
370
-1
100
AcDbMText
10
20
20
2
30
0
40
2
41
21.0555551316
71
4
72
5
1
SIGNAL GROUND
7
iso
210
0
220
0
230
1
50
90
73
2
44
1
0
MTEXT
5
6D
100
AcDbEntity
8
0
6
ByLayer
62
256
370
-1
100
AcDbMText
10
10
20
2
30
0
40
2
41
12.8333329093
71
4
72
5
1
SIGNAL IN
7
iso
210
0
220
0
230
1
50
90
73
2
44
1
0
MTEXT
5
6E
100
AcDbEntity
8
0
6
ByLayer
62
256
370
-1
100
AcDbMText
10
30
20
2
30
0
40
2
41
8.66666666667
71
4
72
5
1
POWER
7
iso
210
0
220
0
230
1
50
90
73
2
44
1
0
MTEXT
5
6F
100
AcDbEntity
8
0
6
ByLayer
62
256
370
-1
100
AcDbMText
10
40
20
2
30
0
40
2
41
10
71
4
72
5
1
GROUND
7
iso
210
0
220
0
230
1
50
90
73
2
44
1
0
MTEXT
5
70
100
AcDbEntity
8
0
6
ByLayer
62
256
370
-1
100
AcDbMText
10
50
20
2
30
0
40
2
41
18.3888884649
71
4
72
5
1
SPEAKER OUT
7
iso
210
0
220
0
230
1
50
90
73
2
44
1
0
MTEXT
5
71
100
AcDbEntity
8
0
6
ByLayer
62
256
370
-1
100
AcDbMText
10
0
20
31
30
0
40
5
41
32.2222222222
71
7
72
5
1
AMPLIFIER
7
iso
210
0
220
0
230
1
50
0
73
2
44
1
0
ENDBLK
5
4A
330
48
100
AcDbEntity
8
0
100
AcDbBlockEnd
0
BLOCK
5
4C
330
4B
100
AcDbEntity
8
0
100
AcDbBlockBegin
2
StereoPot
70
0
10
0
20
0
3
StereoPot
1

0
LINE
5
72
100
AcDbEntity
8
0
6
ByLayer
62
256
370
-1
100
AcDbLine
10
10
20
0
11
10
21
-5
0
LINE
5
73
100
AcDbEntity
8
0
6
ByLayer
62
256
370
-1
100
AcDbLine
10
20
20
0
11
20
21
-5
0
LINE
5
74
100
AcDbEntity
8
0
6
ByLayer
62
256
370
-1
100
AcDbLine
10
30
20
0
11
30
21
-5
0
LINE
5
75
100
AcDbEntity
8
0
6
ByLayer
62
256
370
-1
100
AcDbLine
10
40
20
0
11
40
21
-5
0
LINE
5
76
100
AcDbEntity
8
0
6
ByLayer
62
256
370
-1
100
AcDbLine
10
50
20
0
11
50
21
-5
0
LINE
5
77
100
AcDbEntity
8
0
6
ByLayer
62
256
370
-1
100
AcDbLine
10
60
20
0
11
60
21
-5
0
LINE
5
78
100
AcDbEntity
8
0
6
ByLayer
62
256
370
-1
100
AcDbLine
10
0
20
20
11
70
21
20
0
LINE
5
79
100
AcDbEntity
8
0
6
ByLayer
62
256
370
-1
100
AcDbLine
10
70
20
20
11
70
21
0
0
LINE
5
7A
100
AcDbEntity
8
0
6
ByLayer
62
256
370
-1
100
AcDbLine
10
70
20
0
11
0
21
0
0
LINE
5
7B
100
AcDbEntity
8
0
6
ByLayer
62
256
370
-1
100
AcDbLine
10
0
20
0
11
0
21
20
0
MTEXT
5
7C
100
AcDbEntity
8
0
6
ByLayer
62
256
370
-1
100
AcDbMText
10
10
20
2
30
0
40
2
41
9.55555555556
71
4
72
5
1
HIGH_1
7
iso
210
0
220
0
230
1
50
90
73
2
44
1
0
MTEXT
5
7D
100
AcDbEntity
8
0
6
ByLayer
62
256
370
-1
100
AcDbMText
10
40
20
2
30
0
40
2
41
10
71
4
72
5
1
HIGH_2
7
iso
210
0
220
0
230
1
50
90
73
2
44
1
0
MTEXT
5
7E
100
AcDbEntity
8
0
6
ByLayer
62
256
370
-1
100
AcDbMText
10
60
20
2
30
0
40
2
41
9.77777777778
71
4
72
5
1
LOW_2
7
iso
210
0
220
0
230
1
50
90
73
2
44
1
0
MTEXT
5
7F
100
AcDbEntity
8
0
6
ByLayer
62
256
370
-1
100
AcDbMText
10
30
20
2
30
0
40
2
41
9.33333333333
71
4
72
5
1
LOW_1
7
iso
210
0
220
0
230
1
50
90
73
2
44
1
0
MTEXT
5
80
100
AcDbEntity
8
0
6
ByLayer
62
256
370
-1
100
AcDbMText
10
20
20
2
30
0
40
2
41
11.7777777778
71
4
72
5
1
WIPER_1
7
iso
210
0
220
0
230
1
50
90
73
2
44
1
0
MTEXT
5
81
100
AcDbEntity
8
0
6
ByLayer
62
256
370
-1
100
AcDbMText
10
50
20
2
30
0
40
2
41
12.2222222222
71
4
72
5
1
WIPER_2
7
iso
210
0
220
0
230
1
50
90
73
2
44
1
0
MTEXT
5
82
100
AcDbEntity
8
0
6
ByLayer
62
256
370
-1
100
AcDbMText
10
0
20
21
30
0
40
5
41
52.2222222222
71
7
72
5
1
POTENTIOMETER
7
iso
210
0
220
0
230
1
50
0
73
2
44
1
0
ENDBLK
5
4D
330
4B
100
AcDbEntity
8
0
100
AcDbBlockEnd
0
BLOCK
5
4F
330
4E
100
AcDbEntity
8
0
100
AcDbBlockBegin
2
Speaker
70
0
10
0
20
0
3
Speaker
1

0
LINE
5
83
100
AcDbEntity
8
0
6
ByLayer
62
256
370
-1
100
AcDbLine
10
10
20
0
11
10
21
-5
0
LINE
5
84
100
AcDbEntity
8
0
6
ByLayer
62
256
370
-1
100
AcDbLine
10
20
20
0
11
20
21
-5
0
LINE
5
85
100
AcDbEntity
8
0
6
ByLayer
62
256
370
-1
100
AcDbLine
10
0
20
20
11
30
21
20
0
LINE
5
86
100
AcDbEntity
8
0
6
ByLayer
62
256
370
-1
100
AcDbLine
10
30
20
20
11
30
21
0
0
LINE
5
87
100
AcDbEntity
8
0
6
ByLayer
62
256
370
-1
100
AcDbLine
10
30
20
0
11
0
21
0
0
LINE
5
88
100
AcDbEntity
8
0
6
ByLayer
62
256
370
-1
100
AcDbLine
10
0
20
0
11
0
21
20
0
MTEXT
5
89
100
AcDbEntity
8
0
6
ByLayer
62
256
370
-1
100
AcDbMText
10
0
20
21
30
0
40
5
41
28.8888878289
71
7
72
5
1
SPEAKER
7
iso
210
0
220
0
230
1
50
0
73
2
44
1
0
MTEXT
5
8A
100
AcDbEntity
8
0
6
ByLayer
62
256
370
-1
100
AcDbMText
10
10
20
2
30
0
40
2
41
8.88888846488
71
4
72
5
1
SIGNAL
7
iso
210
0
220
0
230
1
50
90
73
2
44
1
0
MTEXT
5
8B
100
AcDbEntity
8
0
6
ByLayer
62
256
370
-1
100
AcDbMText
10
20
20
2
30
0
40
2
41
10
71
4
72
5
1
GROUND
7
iso
210
0
220
0
230
1
50
90
73
2
44
1
0
ENDBLK
5
50
330
4E
100
AcDbEntity
8
0
100
AcDbBlockEnd
0
BLOCK
5
52
330
51
100
AcDbEntity
8
0
100
AcDbBlockBegin
2
Switch
70
0
10
0
20
0
3
Switch
1

0
LINE
5
8C
100
AcDbEntity
8
0
6
ByLayer
62
256
370
-1
100
AcDbLine
10
10
20
0
11
10
21
-5
0
LINE
5
8D
100
AcDbEntity
8
0
6
ByLayer
62
256
370
-1
100
AcDbLine
10
20
20
0
11
20
21
-5
0
LINE
5
8E
100
AcDbEntity
8
0
6
ByLayer
62
256
370
-1
100
AcDbLine
10
0
20
10
11
30
21
10
0
LINE
5
8F
100
AcDbEntity
8
0
6
ByLayer
62
256
370
-1
100
AcDbLine
10
30
20
10
11
30
21
0
0
LINE
5
90
100
AcDbEntity
8
0
6
ByLayer
62
256
370
-1
100
AcDbLine
10
30
20
0
11
0
21
0
0
LINE
5
91
100
AcDbEntity
8
0
6
ByLayer
62
256
370
-1
100
AcDbLine
10
0
20
0
11
0
21
10
0
MTEXT
5
92
100
AcDbEntity
8
0
6
ByLayer
62
256
370
-1
100
AcDbMText
10
0
20
11
30
0
40
5
41
23.3333322733
71
7
72
5
1
SWITCH
7
iso
210
0
220
0
230
1
50
0
73
2
44
1
0
ENDBLK
5
53
330
51
100
AcDbEntity
8
0
100
AcDbBlockEnd
0
BLOCK
5
55
330
54
100
AcDbEntity
8
0
100
AcDbBlockBegin
2
Fuse
70
0
10
0
20
0
3
Fuse
1

0
LINE
5
93
100
AcDbEntity
8
0
6
ByLayer
62
256
370
-1
100
AcDbLine
10
10
20
0
11
10
21
-5
0
LINE
5
94
100
AcDbEntity
8
0
6
ByLayer
62
256
370
-1
100
AcDbLine
10
20
20
0
11
20
21
-5
0
LINE
5
95
100
AcDbEntity
8
0
6
ByLayer
62
256
370
-1
100
AcDbLine
10
0
20
10
11
30
21
10
0
LINE
5
96
100
AcDbEntity
8
0
6
ByLayer
62
256
370
-1
100
AcDbLine
10
30
20
10
11
30
21
0
0
LINE
5
97
100
AcDbEntity
8
0
6
ByLayer
62
256
370
-1
100
AcDbLine
10
30
20
0
11
0
21
0
0
LINE
5
98
100
AcDbEntity
8
0
6
ByLayer
62
256
370
-1
100
AcDbLine
10
0
20
0
11
0
21
10
0
MTEXT
5
99
100
AcDbEntity
8
0
6
ByLayer
62
256
370
-1
100
AcDbMText
10
0
20
11
30
0
40
5
41
14.99999894
71
7
72
5
1
FUSE
7
iso
210
0
220
0
230
1
50
0
73
2
44
1
0
ENDBLK
5
56
330
54
100
AcDbEntity
8
0
100
AcDbBlockEnd
0
BLOCK
5
58
330
57
100
AcDbEntity
8
0
100
AcDbBlockBegin
2
DC-DC_Converter
70
0
10
0
20
0
3
DC-DC_Converter
1

0
LINE
5
9A
100
AcDbEntity
8
0
6
ByLayer
62
256
370
-1
100
AcDbLine
10
10
20
0
11
10
21
-5
0
LINE
5
9B
100
AcDbEntity
8
0
6
ByLayer
62
256
370
-1
100
AcDbLine
10
20
20
0
11
20
21
-5
0
LINE
5
9C
100
AcDbEntity
8
0
6
ByLayer
62
256
370
-1
100
AcDbLine
10
30
20
0
11
30
21
-5
0
LINE
5
9D
100
AcDbEntity
8
0
6
ByLayer
62
256
370
-1
100
AcDbLine
10
40
20
0
11
40
21
-5
0
MTEXT
5
9E
100
AcDbEntity
8
0
6
ByLayer
62
256
370
-1
100
AcDbMText
10
10
20
2
30
0
40
2
41
9.72222222222
71
4
72
5
1
+V OUT
7
iso
210
0
220
0
230
1
50
90
73
2
44
1
0
MTEXT
5
9F
100
AcDbEntity
8
0
6
ByLayer
62
256
370
-1
100
AcDbMText
10
30
20
2
30
0
40
2
41
6.83333333333
71
4
72
5
1
+V IN
7
iso
210
0
220
0
230
1
50
90
73
2
44
1
0
MTEXT
5
A0
100
AcDbEntity
8
0
6
ByLayer
62
256
370
-1
100
AcDbMText
10
40
20
2
30
0
40
2
41
8.61111111111
71
4
72
5
1
GND IN
7
iso
210
0
220
0
230
1
50
90
73
2
44
1
0
MTEXT
5
A1
100
AcDbEntity
8
0
6
ByLayer
62
256
370
-1
100
AcDbMText
10
20
20
2
30
0
40
2
41
11.5
71
4
72
5
1
GND OUT
7
iso
210
0
220
0
230
1
50
90
73
2
44
1
0
LINE
5
A2
100
AcDbEntity
8
0
6
ByLayer
62
256
370
-1
100
AcDbLine
10
0
20
20
11
50
21
20
0
LINE
5
A3
100
AcDbEntity
8
0
6
ByLayer
62
256
370
-1
100
AcDbLine
10
50
20
20
11
50
21
0
0
LINE
5
A4
100
AcDbEntity
8
0
6
ByLayer
62
256
370
-1
100
AcDbLine
10
50
20
0
11
0
21
0
0
LINE
5
A5
100
AcDbEntity
8
0
6
ByLayer
62
256
370
-1
100
AcDbLine
10
0
20
0
11
0
21
20
0
MTEXT
5
A6
100
AcDbEntity
8
0
6
ByLayer
62
256
370
-1
100
AcDbMText
10
0
20
21
30
0
40
5
41
42.0833333333
71
7
72
5
1
DC-DC CONV.
7
iso
210
0
220
0
230
1
50
0
73
2
44
1
0
ENDBLK
5
59
330
57
100
AcDbEntity
8
0
100
AcDbBlockEnd
0
BLOCK
5
5B
330
5A
100
AcDbEntity
8
0
100
AcDbBlockBegin
2
Battery
70
0
10
0
20
0
3
Battery
1

0
MTEXT
5
A7
100
AcDbEntity
8
0
6
ByLayer
62
256
370
-1
100
AcDbMText
10
0
20
16
30
0
40
5
41
30
71
7
72
5
1
BATTERY
7
iso
210
0
220
0
230
1
50
0
73
2
44
1
0
LINE
5
A8
100
AcDbEntity
8
0
6
ByLayer
62
256
370
-1
100
AcDbLine
10
40
20
10
11
45
21
10
0
LINE
5
A9
100
AcDbEntity
8
0
6
ByLayer
62
256
370
-1
100
AcDbLine
10
40
20
0
11
45
21
0
0
MTEXT
5
AA
100
AcDbEntity
8
0
6
ByLayer
62
256
370
-1
100
AcDbMText
10
38
20
10
30
0
40
2
41
2.88888888889
71
6
72
5
1
+V
7
iso
210
0
220
0
230
1
50
0
73
2
44
1
0
MTEXT
5
AB
100
AcDbEntity
8
0
6
ByLayer
62
256
370
-1
100
AcDbMText
10
38
20
0
30
0
40
2
41
4.66666666667
71
6
72
5
1
GND
7
iso
210
0
220
0
230
1
50
0
73
2
44
1
0
LINE
5
AC
100
AcDbEntity
8
Wiring
6
ByLayer
62
256
370
-1
100
AcDbLine
10
0
20
15
11
40
21
15
0
LINE
5
AD
100
AcDbEntity
8
Wiring
6
ByLayer
62
256
370
-1
100
AcDbLine
10
40
20
15
11
40
21
-5
0
LINE
5
AE
100
AcDbEntity
8
Wiring
6
ByLayer
62
256
370
-1
100
AcDbLine
10
40
20
-5
11
0
21
-5
0
LINE
5
AF
100
AcDbEntity
8
Wiring
6
ByLayer
62
256
370
-1
100
AcDbLine
10
0
20
-5
11
0
21
15
0
ENDBLK
5
5C
330
5A
100
AcDbEntity
8
0
100
AcDbBlockEnd
0
BLOCK
5
5E
330
5D
100
AcDbEntity
8
0
100
AcDbBlockBegin
2
Junction
70
0
10
0
20
0
3
Junction
1

0
HATCH
5
B0
100
AcDbEntity
8
0
6
ByLayer
62
256
370
-1
100
AcDbHatch
10
0
20
0
30
0
210
0
220
0
230
1
2
SOLID
70
1
71
0
91
1
92
0
93
1
72
2
10
0
20
0
40
0.5
50
0
51
360
73
1
97
0
75
0
76
1
98
0
0
CIRCLE
5
B1
100
AcDbEntity
8
0
6
ByLayer
62
256
370
-1
100
AcDbCircle
10
0
20
0
40
0.5
0
ENDBLK
5
5F
330
5D
100
AcDbEntity
8
0
100
AcDbBlockEnd
0
BLOCK
5
61
330
60
100
AcDbEntity
8
0
100
AcDbBlockBegin
2
RaspPi
70
0
10
0
20
0
3
RaspPi
1

0
LINE
5
B2
100
AcDbEntity
8
0
6
ByLayer
62
256
370
-1
100
AcDbLine
10
0
20
80
11
50
21
80
0
LINE
5
B3
100
AcDbEntity
8
0
6
ByLayer
62
256
370
-1
100
AcDbLine
10
50
20
80
11
50
21
0
0
LINE
5
B4
100
AcDbEntity
8
0
6
ByLayer
62
256
370
-1
100
AcDbLine
10
50
20
0
11
0
21
0
0
LINE
5
B5
100
AcDbEntity
8
0
6
ByLayer
62
256
370
-1
100
AcDbLine
10
0
20
0
11
0
21
80
0
LINE
5
B6
100
AcDbEntity
8
0
6
ByLayer
62
256
370
-1
100
AcDbLine
10
50
20
55
11
50
21
75
0
LINE
5
B7
100
AcDbEntity
8
0
6
ByLayer
62
256
370
-1
100
AcDbLine
10
50
20
10
11
50
21
25
0
LINE
5
B8
100
AcDbEntity
8
0
6
ByLayer
62
256
370
-1
100
AcDbLine
10
50
20
15
11
55
21
15
0
LINE
5
B9
100
AcDbEntity
8
0
6
ByLayer
62
256
370
-1
100
AcDbLine
10
50
20
10
11
55
21
10
0
LINE
5
BA
100
AcDbEntity
8
0
6
ByLayer
62
256
370
-1
100
AcDbLine
10
50
20
70
11
55
21
70
0
LINE
5
BB
100
AcDbEntity
8
0
6
ByLayer
62
256
370
-1
100
AcDbLine
10
50
20
65
11
55
21
65
0
LINE
5
BC
100
AcDbEntity
8
0
6
ByLayer
62
256
370
-1
100
AcDbLine
10
50
20
60
11
55
21
60
0
MTEXT
5
BD
100
AcDbEntity
8
0
6
ByLayer
62
256
370
-1
100
AcDbMText
10
48
20
15
30
0
40
2
41
22.722222
71
6
72
5
1
GPIO PIN 4 (+5V)
7
iso
210
0
220
0
230
1
50
0
73
2
44
1
0
MTEXT
5
BE
100
AcDbEntity
8
0
6
ByLayer
62
256
370
-1
100
AcDbMText
10
48
20
10
30
0
40
2
41
22.722222
71
6
72
5
1
GPIO PIN 6 (GND)
7
iso
210
0
220
0
230
1
50
0
73
2
44
1
0
MTEXT
5
BF
100
AcDbEntity
8
0
6
ByLayer
62
256
370
-1
100
AcDbMText
10
0
20
81
30
0
40
5
41
48.74999894
71
7
72
5
1
RASPBERRY PI
7
iso
210
0
220
0
230
1
50
0
73
2
44
1
0
MTEXT
5
C0
100
AcDbEntity
8
0
6
ByLayer
62
256
370
-1
100
AcDbMText
10
48
20
65
30
0
40
2
41
7.11111111111
71
6
72
5
1
RIGHT
7
iso
210
0
220
0
230
1
50
0
73
2
44
1
0
MTEXT
5
C1
100
AcDbEntity
8
0
6
ByLayer
62
256
370
-1
100
AcDbMText
10
48
20
60
30
0
40
2
41
5.77777777778
71
6
72
5
1
LEFT
7
iso
210
0
220
0
230
1
50
0
73
2
44
1
0
MTEXT
5
C2
100
AcDbEntity
8
0
6
ByLayer
62
256
370
-1
100
AcDbMText
10
48
20
70
30
0
40
2
41
10
71
6
72
5
1
GROUND
7
iso
210
0
220
0
230
1
50
0
73
2
44
1
0
ENDBLK
5
62
330
60
100
AcDbEntity
8
0
100
AcDbBlockEnd
0
ENDSEC
0
SECTION
2
ENTITIES
0
INSERT
5
C3
100
AcDbEntity
8
0
6
ByLayer
62
256
370
-1
100
AcDbBlockReference
2
Amplifier
10
160
20
10
30
0
41
1
42
1
43
0
50
0
70
1
71
1
44
0
45
0
0
INSERT
5
C4
100
AcDbEntity
8
0
6
ByLayer
62
256
370
-1
100
AcDbBlockReference
2
Speaker
10
240
20
10
30
0
41
1
42
1
43
0
50
0
70
1
71
1
44
1
45
1
0
LINE
5
C5
100
AcDbEntity
8
Wiring
6
ByLayer
62
256
370
-1
100
AcDbLine
10
200
20
5
11
200
21
0
0
LINE
5
C6
100
AcDbEntity
8
Wiring
6
ByLayer
62
256
370
-1
100
AcDbLine
10
260
20
0
11
260
21
5
0
LINE
5
C7
100
AcDbEntity
8
Wiring
6
ByLayer
62
256
370
-1
100
AcDbLine
10
200
20
0
11
200
21
-5
0
LINE
5
C8
100
AcDbEntity
8
Wiring
6
ByLayer
62
256
370
-1
100
AcDbLine
10
200
20
-5
11
260
21
-5
0
LINE
5
C9
100
AcDbEntity
8
Wiring
6
ByLayer
62
256
370
-1
100
AcDbLine
10
260
20
-5
11
260
21
0
0
LINE
5
CA
100
AcDbEntity
8
Wiring
6
ByLayer
62
256
370
-1
100
AcDbLine
10
200
20
-5
11
145
21
-5
0
INSERT
5
CB
100
AcDbEntity
8
0
6
ByLayer
62
256
370
-1
100
AcDbBlockReference
2
Amplifier
10
160
20
80
30
0
41
1
42
1
43
0
50
0
70
1
71
1
44
1
45
1
0
INSERT
5
CC
100
AcDbEntity
8
0
6
ByLayer
62
256
370
-1
100
AcDbBlockReference
2
Speaker
10
240
20
80
30
0
41
1
42
1
43
0
50
0
70
1
71
1
44
0
45
0
0
INSERT
5
CD
100
AcDbEntity
8
0
6
ByLayer
62
256
370
-1
100
AcDbBlockReference
2
Switch
10
50
20
130
30
0
41
1
42
1
43
0
50
0
70
1
71
1
44
0
45
0
0
INSERT
5
CE
100
AcDbEntity
8
0
6
ByLayer
62
256
370
-1
100
AcDbBlockReference
2
Fuse
10
90
20
130
30
0
41
1
42
1
43
0
50
0
70
1
71
1
44
0
45
0
0
LINE
5
CF
100
AcDbEntity
8
Wiring
6
ByLayer
62
256
370
-1
100
AcDbLine
10
260
20
75
11
260
21
70
0
LINE
5
D0
100
AcDbEntity
8
Wiring
6
ByLayer
62
256
370
-1
100
AcDbLine
10
200
20
70
11
200
21
75
0
LINE
5
D1
100
AcDbEntity
8
Wiring
6
ByLayer
62
256
370
-1
100
AcDbLine
10
200
20
70
11
200
21
65
0
LINE
5
D2
100
AcDbEntity
8
Wiring
6
ByLayer
62
256
370
-1
100
AcDbLine
10
200
20
65
11
260
21
65
0
LINE
5
D3
100
AcDbEntity
8
Wiring
6
ByLayer
62
256
370
-1
100
AcDbLine
10
260
20
65
11
260
21
70
0
LINE
5
D4
100
AcDbEntity
8
Wiring
6
ByLayer
62
256
370
-1
100
AcDbLine
10
145
20
5
11
145
21
65
0
LINE
5
D5
100
AcDbEntity
8
Wiring
6
ByLayer
62
256
370
-1
100
AcDbLine
10
145
20
65
11
200
21
65
0
LINE
5
D6
100
AcDbEntity
8
Wiring
6
ByLayer
62
256
370
-1
100
AcDbLine
10
145
20
5
11
145
21
-5
0
LINE
5
D7
100
AcDbEntity
8
Wiring
6
ByLayer
62
256
370
-1
100
AcDbLine
10
120
20
5
11
120
21
-5
0
INSERT
5
D8
100
AcDbEntity
8
0
6
ByLayer
62
256
370
-1
100
AcDbBlockReference
2
DC-DC_Converter
10
80
20
10
30
0
41
1
42
1
43
0
50
0
70
1
71
1
44
0
45
0
0
INSERT
5
D9
100
AcDbEntity
8
0
6
ByLayer
62
256
370
-1
100
AcDbBlockReference
2
StereoPot
10
60
20
80
30
0
41
1
42
1
43
0
50
0
70
1
71
1
44
0
45
0
0
INSERT
5
DA
100
AcDbEntity
8
Wiring
6
ByLayer
62
256
370
-1
100
AcDbBlockReference
2
Junction
10
145
20
65
30
0
41
1
42
1
43
0
50
0
70
1
71
1
44
1
45
1
0
INSERT
5
DB
100
AcDbEntity
8
Wiring
6
ByLayer
62
256
370
-1
100
AcDbBlockReference
2
Junction
10
145
20
-5
30
0
41
1
42
1
43
0
50
0
70
1
71
1
44
1
45
1
0
INSERT
5
DC
100
AcDbEntity
8
Wiring
6
ByLayer
62
256
370
-1
100
AcDbBlockReference
2
Junction
10
200
20
-5
30
0
41
1
42
1
43
0
50
0
70
1
71
1
44
1
45
1
0
INSERT
5
DD
100
AcDbEntity
8
Wiring
6
ByLayer
62
256
370
-1
100
AcDbBlockReference
2
Junction
10
200
20
65
30
0
41
1
42
1
43
0
50
0
70
1
71
1
44
1
45
1
0
LINE
5
DE
100
AcDbEntity
8
Wiring
6
ByLayer
62
256
370
-1
100
AcDbLine
10
120
20
-5
11
145
21
-5
0
INSERT
5
DF
100
AcDbEntity
8
0
6
ByLayer
62
256
370
-1
100
AcDbBlockReference
2
RaspPi
10
-10
20
0
30
0
41
1
42
1
43
0
50
0
70
1
71
1
44
0
45
0
0
LINE
5
E0
100
AcDbEntity
8
Wiring
6
ByLayer
62
256
370
-1
100
AcDbLine
10
45
20
10
11
55
21
10
0
LINE
5
E1
100
AcDbEntity
8
Wiring
6
ByLayer
62
256
370
-1
100
AcDbLine
10
55
20
10
11
55
21
-4
0
LINE
5
E2
100
AcDbEntity
8
Wiring
6
ByLayer
62
256
370
-1
100
AcDbLine
10
55
20
-4
11
55
21
-5
0
LINE
5
E3
100
AcDbEntity
8
Wiring
6
ByLayer
62
256
370
-1
100
AcDbLine
10
55
20
-5
11
100
21
-5
0
LINE
5
E4
100
AcDbEntity
8
Wiring
6
ByLayer
62
256
370
-1
100
AcDbLine
10
100
20
-5
11
100
21
5
0
LINE
5
E5
100
AcDbEntity
8
Wiring
6
ByLayer
62
2
370
-1
100
AcDbLine
10
150
20
0
11
190
21
0
0
LINE
5
E6
100
AcDbEntity
8
Wiring
6
ByLayer
62
2
370
-1
100
AcDbLine
10
190
20
0
11
190
21
5
0
LINE
5
E7
100
AcDbEntity
8
Wiring
6
ByLayer
62
2
370
-1
100
AcDbLine
10
190
20
75
11
190
21
70
0
LINE
5
E8
100
AcDbEntity
8
Wiring
6
ByLayer
62
2
370
-1
100
AcDbLine
10
190
20
70
11
150
21
70
0
LINE
5
E9
100
AcDbEntity
8
Wiring
6
ByLayer
62
2
370
-1
100
AcDbLine
10
150
20
70
11
150
21
10
0
LINE
5
EA
100
AcDbEntity
8
Wiring
6
ByLayer
62
2
370
-1
100
AcDbLine
10
70
20
125
11
70
21
120
0
LINE
5
EB
100
AcDbEntity
8
Wiring
6
ByLayer
62
2
370
-1
100
AcDbLine
10
70
20
120
11
100
21
120
0
LINE
5
EC
100
AcDbEntity
8
Wiring
6
ByLayer
62
2
370
-1
100
AcDbLine
10
100
20
120
11
100
21
125
0
LINE
5
ED
100
AcDbEntity
8
Wiring
6
ByLayer
62
2
370
-1
100
AcDbLine
10
150
20
120
11
110
21
120
0
LINE
5
EE
100
AcDbEntity
8
Wiring
6
ByLayer
62
2
370
-1
100
AcDbLine
10
110
20
120
11
110
21
125
0
LINE
5
EF
100
AcDbEntity
8
Wiring
6
ByLayer
62
2
370
-1
100
AcDbLine
10
150
20
70
11
150
21
120
0
LINE
5
F0
100
AcDbEntity
8
Wiring
6
ByLayer
62
2
370
-1
100
AcDbLine
10
150
20
10
11
150
21
0
0
LINE
5
F1
100
AcDbEntity
8
Wiring
6
ByLayer
62
2
370
-1
100
AcDbLine
10
110
20
0
11
110
21
5
0
INSERT
5
F2
100
AcDbEntity
8
Wiring
6
ByLayer
62
2
370
-1
100
AcDbBlockReference
2
Junction
10
150
20
70
30
0
41
1
42
1
43
0
50
0
70
1
71
1
44
1
45
1
0
INSERT
5
F3
100
AcDbEntity
8
Wiring
6
ByLayer
62
2
370
-1
100
AcDbBlockReference
2
Junction
10
150
20
0
30
0
41
1
42
1
43
0
50
0
70
1
71
1
44
1
45
1
0
LINE
5
F4
100
AcDbEntity
8
Wiring
6
ByLayer
62
2
370
-1
100
AcDbLine
10
150
20
0
11
110
21
0
0
LINE
5
F5
100
AcDbEntity
8
Wiring
6
ByLayer
62
1
370
-1
100
AcDbLine
10
90
20
5
11
90
21
0
0
LINE
5
F6
100
AcDbEntity
8
Wiring
6
ByLayer
62
1
370
-1
100
AcDbLine
10
90
20
0
11
60
21
0
0
LINE
5
F7
100
AcDbEntity
8
Wiring
6
ByLayer
62
1
370
-1
100
AcDbLine
10
60
20
0
11
60
21
15
0
LINE
5
F8
100
AcDbEntity
8
Wiring
6
ByLayer
62
1
370
-1
100
AcDbLine
10
60
20
15
11
45
21
15
0
LINE
5
F9
100
AcDbEntity
8
Wiring
6
ByLayer
62
252
370
-1
100
AcDbLine
10
180
20
-15
11
155
21
-15
0
LINE
5
FA
100
AcDbEntity
8
Wiring
6
ByLayer
62
252
370
-1
100
AcDbLine
10
180
20
55
11
180
21
75
0
LINE
5
FB
100
AcDbEntity
8
Wiring
6
ByLayer
62
252
370
-1
100
AcDbLine
10
180
20
5
11
180
21
-15
0
LINE
5
FC
100
AcDbEntity
8
Wiring
6
ByLayer
62
252
370
-1
100
AcDbLine
10
120
20
75
11
120
21
70
0
LINE
5
FD
100
AcDbEntity
8
Wiring
6
ByLayer
62
252
370
-1
100
AcDbLine
10
120
20
70
11
90
21
70
0
LINE
5
FE
100
AcDbEntity
8
Wiring
6
ByLayer
62
252
370
-1
100
AcDbLine
10
90
20
70
11
90
21
75
0
LINE
5
FF
100
AcDbEntity
8
Wiring
6
ByLayer
62
252
370
-1
100
AcDbLine
10
90
20
70
11
60
21
70
0
LINE
5
100
100
AcDbEntity
8
Wiring
6
ByLayer
62
252
370
-1
100
AcDbLine
10
45
20
70
11
60
21
70
0
LINE
5
101
100
AcDbEntity
8
Wiring
6
ByLayer
62
252
370
-1
100
AcDbLine
10
120
20
70
11
120
21
50
0
LINE
5
102
100
AcDbEntity
8
Wiring
6
ByLayer
62
252
370
-1
100
AcDbLine
10
120
20
50
11
155
21
50
0
LINE
5
103
100
AcDbEntity
8
Wiring
6
ByLayer
62
252
370
-1
100
AcDbLine
10
155
20
50
11
180
21
50
0
LINE
5
104
100
AcDbEntity
8
Wiring
6
ByLayer
62
252
370
-1
100
AcDbLine
10
180
20
50
11
180
21
55
0
LINE
5
105
100
AcDbEntity
8
Wiring
6
ByLayer
62
252
370
-1
100
AcDbLine
10
155
20
-15
11
155
21
50
0
LINE
5
106
100
AcDbEntity
8
Wiring
6
ByLayer
62
4
370
-1
100
AcDbLine
10
170
20
-10
11
140
21
-10
0
LINE
5
107
100
AcDbEntity
8
Wiring
6
ByLayer
62
4
370
-1
100
AcDbLine
10
140
20
-10
11
140
21
55
0
LINE
5
108
100
AcDbEntity
8
Wiring
6
ByLayer
62
4
370
-1
100
AcDbLine
10
170
20
5
11
170
21
-10
0
LINE
5
109
100
AcDbEntity
8
Wiring
6
ByLayer
62
4
370
-1
100
AcDbLine
10
70
20
65
11
70
21
75
0
LINE
5
10A
100
AcDbEntity
8
Wiring
6
ByLayer
62
4
370
-1
100
AcDbLine
10
80
20
55
11
80
21
75
0
LINE
5
10B
100
AcDbEntity
8
Wiring
6
ByLayer
62
4
370
-1
100
AcDbLine
10
70
20
65
11
60
21
65
0
LINE
5
10C
100
AcDbEntity
8
Wiring
6
ByLayer
62
4
370
-1
100
AcDbLine
10
80
20
55
11
140
21
55
0
LINE
5
10D
100
AcDbEntity
8
Wiring
6
ByLayer
62
4
370
-1
100
AcDbLine
10
60
20
65
11
45
21
65
0
LINE
5
10E
100
AcDbEntity
8
Wiring
6
ByLayer
62
4
370
-1
100
AcDbLine
10
170
20
75
11
170
21
60
0
LINE
5
10F
100
AcDbEntity
8
Wiring
6
ByLayer
62
4
370
-1
100
AcDbLine
10
100
20
75
11
100
21
60
0
LINE
5
110
100
AcDbEntity
8
Wiring
6
ByLayer
62
4
370
-1
100
AcDbLine
10
110
20
60
11
110
21
75
0
LINE
5
111
100
AcDbEntity
8
Wiring
6
ByLayer
62
4
370
-1
100
AcDbLine
10
100
20
60
11
60
21
60
0
LINE
5
112
100
AcDbEntity
8
Wiring
6
ByLayer
62
4
370
-1
100
AcDbLine
10
110
20
60
11
170
21
60
0
LINE
5
113
100
AcDbEntity
8
Wiring
6
ByLayer
62
4
370
-1
100
AcDbLine
10
45
20
60
11
60
21
60
0
LINE
5
114
100
AcDbEntity
8
Wiring
6
ByLayer
62
5
370
-1
100
AcDbLine
10
250
20
5
11
250
21
0
0
LINE
5
115
100
AcDbEntity
8
Wiring
6
ByLayer
62
5
370
-1
100
AcDbLine
10
250
20
0
11
210
21
0
0
LINE
5
116
100
AcDbEntity
8
Wiring
6
ByLayer
62
5
370
-1
100
AcDbLine
10
210
20
0
11
210
21
5
0
LINE
5
117
100
AcDbEntity
8
Wiring
6
ByLayer
62
5
370
-1
100
AcDbLine
10
210
20
75
11
210
21
70
0
LINE
5
118
100
AcDbEntity
8
Wiring
6
ByLayer
62
5
370
-1
100
AcDbLine
10
210
20
70
11
250
21
70
0
LINE
5
119
100
AcDbEntity
8
Wiring
6
ByLayer
62
5
370
-1
100
AcDbLine
10
250
20
70
11
250
21
75
0
LINE
5
11A
100
AcDbEntity
8
Wiring
6
ByLayer
62
256
370
-1
100
AcDbLine
10
60
20
110
11
35
21
110
0
INSERT
5
11B
100
AcDbEntity
8
0
6
ByLayer
62
256
370
-1
100
AcDbBlockReference
2
Battery
10
-10
20
110
30
0
41
1
42
1
43
0
50
0
70
1
71
1
44
1
45
1
0
LINE
5
11C
100
AcDbEntity
8
Wiring
6
ByLayer
62
2
370
-1
100
AcDbLine
10
35
20
120
11
60
21
120
0
LINE
5
11D
100
AcDbEntity
8
Wiring
6
ByLayer
62
256
370
-1
100
AcDbLine
10
145
20
110
11
60
21
110
0
LINE
5
11E
100
AcDbEntity
8
Wiring
6
ByLayer
62
256
370
-1
100
AcDbLine
10
145
20
110
11
145
21
65
0
LINE
5
11F
100
AcDbEntity
8
Wiring
6
ByLayer
62
2
370
-1
100
AcDbLine
10
60
20
120
11
60
21
125
0
INSERT
5
120
100
AcDbEntity
8
Wiring
6
ByLayer
62
252
370
-1
100
AcDbBlockReference
2
Junction
10
90
20
70
30
0
41
1
42
1
43
0
50
0
70
1
71
1
44
1
45
1
0
INSERT
5
121
100
AcDbEntity
8
Wiring
6
ByLayer
62
252
370
-1
100
AcDbBlockReference
2
Junction
10
120
20
70
30
0
41
1
42
1
43
0
50
0
70
1
71
1
44
1
45
1
0
INSERT
5
122
100
AcDbEntity
8
Wiring
6
ByLayer
62
252
370
-1
100
AcDbBlockReference
2
Junction
10
155
20
50
30
0
41
1
42
1
43
0
50
0
70
1
71
1
44
1
45
1
0
ENDSEC
0
SECTION
2
OBJECTS
0
DICTIONARY
5
C
330
0
100
AcDbDictionary
281
1
3
ACAD_GROUP
350
D
0
DICTIONARY
5
D
330
C
100
AcDbDictionary
281
1
0
ENDSEC
0
EOF
