999
dxfrw 0.5.4
0
SECTION
2
HEADER
9
$ACADVER
1
AC1021
9
$HANDSEED
5
20000
9
$DWGCODEPAGE
3
ANSI_1252
9
$INSBASE
10
0
20
0
30
0
9
$EXTMIN
10
1e+020
20
1e+020
30
1e+020
9
$EXTMAX
10
-1e+020
20
-1e+020
30
-1e+020
9
$LIMMIN
10
0
20
0
9
$LIMMAX
10
420
20
297
9
$ORTHOMODE
70
0
9
$LTSCALE
40
1
9
$TEXTSTYLE
7
STANDARD
9
$DIMASZ
40
2.5
9
$DIMEXO
40
0.625
9
$DIMEXE
40
1.25
9
$DIMTXT
40
2.5
9
$DIMTSZ
40
0
9
$DIMAUNIT
70
0
9
$DIMADEC
70
0
9
$DIMSTYLE
2
Standard
9
$DIMGAP
40
0.625
9
$DIMTIH
70
0
9
$LUNITS
70
2
9
$LUPREC
70
4
9
$AUNITS
70
0
9
$AUPREC
70
2
9
$SPLINESEGS
70
8
9
$GRIDMODE
70
1
9
$SNAPSTYLE
70
0
9
$PINSBASE
10
0
20
0
30
0
9
$PLIMMIN
10
0
20
0
9
$PLIMMAX
10
210
20
297
9
$INSUNITS
70
4
9
$PSVPSCALE
40
0
0
ENDSEC
0
SECTION
2
CLASSES
0
ENDSEC
0
SECTION
2
TABLES
0
TABLE
2
VPORT
5
8
330
0
100
AcDbSymbolTable
70
1
0
VPORT
5
31
330
2
100
AcDbSymbolTableRecord
100
AcDbViewportTableRecord
2
*ACTIVE
70
0
10
0
20
0
11
1
21
1
12
36.8964666147
22
20.8880228631
13
0
23
0
14
10
24
10
15
10
25
10
16
0
26
0
36
1
17
0
27
0
37
0
40
42.4608989348
41
1.75134408602
42
50
43
0
44
0
50
0
51
0
71
0
72
100
73
1
74
3
75
0
76
1
77
0
78
0
281
0
65
1
110
0
120
0
130
0
111
1
121
0
131
0
112
0
122
1
132
0
79
0
146
0
348
10020
60
7
61
5
292
1
282
1
141
0
142
0
63
250
421
3358443
0
ENDTAB
0
TABLE
2
LTYPE
5
5
330
0
100
AcDbSymbolTable
70
4
0
LTYPE
5
14
330
5
100
AcDbSymbolTableRecord
100
AcDbLinetypeTableRecord
2
ByBlock
70
0
3

72
65
73
0
40
0
0
LTYPE
5
15
330
5
100
AcDbSymbolTableRecord
100
AcDbLinetypeTableRecord
2
ByLayer
70
0
3

72
65
73
0
40
0
0
LTYPE
5
16
330
5
100
AcDbSymbolTableRecord
100
AcDbLinetypeTableRecord
2
Continuous
70
0
3
Solid line
72
65
73
0
40
0
0
LTYPE
5
32
330
5
100
AcDbSymbolTableRecord
100
AcDbLinetypeTableRecord
2
DOT
70
0
3
Dot . . . . . . . . . . . . . . . . . . . . . .
72
65
73
2
40
6.35
49
0
74
0
49
-6.35
74
0
0
LTYPE
5
33
330
5
100
AcDbSymbolTableRecord
100
AcDbLinetypeTableRecord
2
DOT2
70
0
3
Dot (.5x) .....................................
72
65
73
2
40
3.175
49
0
74
0
49
-3.175
74
0
0
LTYPE
5
34
330
5
100
AcDbSymbolTableRecord
100
AcDbLinetypeTableRecord
2
DOTX2
70
0
3
Dot (2x) .  .  .  .  .  .  .  .  .  .  .  .  .
72
65
73
2
40
12.7
49
0
74
0
49
-12.7
74
0
0
LTYPE
5
35
330
5
100
AcDbSymbolTableRecord
100
AcDbLinetypeTableRecord
2
DASHED
70
0
3
Dot . . . . . . . . . . . . . . . . . . . . . .
72
65
73
2
40
19.05
49
12.7
74
0
49
-6.35
74
0
0
LTYPE
5
36
330
5
100
AcDbSymbolTableRecord
100
AcDbLinetypeTableRecord
2
DASHED2
70
0
3
Dashed (.5x) _ _ _ _ _ _ _ _ _ _ _ _ _ _ _ _ _
72
65
73
2
40
9.525
49
6.35
74
0
49
-3.175
74
0
0
LTYPE
5
37
330
5
100
AcDbSymbolTableRecord
100
AcDbLinetypeTableRecord
2
DASHEDX2
70
0
3
Dashed (2x) ____  ____  ____  ____  ____  ___
72
65
73
2
40
38.1
49
25.4
74
0
49
-12.7
74
0
0
LTYPE
5
38
330
5
100
AcDbSymbolTableRecord
100
AcDbLinetypeTableRecord
2
DASHDOT
70
0
3
Dash dot __ . __ . __ . __ . __ . __ . __ . __
72
65
73
4
40
25.4
49
12.7
74
0
49
-6.35
74
0
49
0
74
0
49
-6.35
74
0
0
LTYPE
5
39
330
5
100
AcDbSymbolTableRecord
100
AcDbLinetypeTableRecord
2
DASHDOT2
70
0
3
Dash dot (.5x) _._._._._._._._._._._._._._._.
72
65
73
4
40
12.7
49
6.35
74
0
49
-3.175
74
0
49
0
74
0
49
-3.175
74
0
0
LTYPE
5
3A
330
5
100
AcDbSymbolTableRecord
100
AcDbLinetypeTableRecord
2
DASHDOTX2
70
0
3
Dash dot (2x) ____  .  ____  .  ____  .  ___
72
65
73
4
40
50.8
49
25.4
74
0
49
-12.7
74
0
49
0
74
0
49
-12.7
74
0
0
LTYPE
5
3B
330
5
100
AcDbSymbolTableRecord
100
AcDbLinetypeTableRecord
2
DIVIDE
70
0
3
Divide ____ . . ____ . . ____ . . ____ . . ____
72
65
73
6
40
31.75
49
12.7
74
0
49
-6.35
74
0
49
0
74
0
49
-6.35
74
0
49
0
74
0
49
-6.35
74
0
0
LTYPE
5
3C
330
5
100
AcDbSymbolTableRecord
100
AcDbLinetypeTableRecord
2
DIVIDE2
70
0
3
Divide (.5x) __..__..__..__..__..__..__..__.._
72
65
73
6
40
15.875
49
6.35
74
0
49
-3.175
74
0
49
0
74
0
49
-3.175
74
0
49
0
74
0
49
-3.175
74
0
0
LTYPE
5
3D
330
5
100
AcDbSymbolTableRecord
100
AcDbLinetypeTableRecord
2
DIVIDEX2
70
0
3
Divide (2x) ________  .  .  ________  .  .  _
72
65
73
6
40
63.5
49
25.4
74
0
49
-12.7
74
0
49
0
74
0
49
-12.7
74
0
49
0
74
0
49
-12.7
74
0
0
LTYPE
5
3E
330
5
100
AcDbSymbolTableRecord
100
AcDbLinetypeTableRecord
2
BORDER
70
0
3
Border __ __ . __ __ . __ __ . __ __ . __ __ .
72
65
73
6
40
44.45
49
12.7
74
0
49
-6.35
74
0
49
12.7
74
0
49
-6.35
74
0
49
0
74
0
49
-6.35
74
0
0
LTYPE
5
3F
330
5
100
AcDbSymbolTableRecord
100
AcDbLinetypeTableRecord
2
BORDER2
70
0
3
Border (.5x) __.__.__.__.__.__.__.__.__.__.__.
72
65
73
6
40
22.225
49
6.35
74
0
49
-3.175
74
0
49
6.35
74
0
49
-3.175
74
0
49
0
74
0
49
-3.175
74
0
0
LTYPE
5
40
330
5
100
AcDbSymbolTableRecord
100
AcDbLinetypeTableRecord
2
BORDERX2
70
0
3
Border (2x) ____  ____  .  ____  ____  .  ___
72
65
73
6
40
88.9
49
25.4
74
0
49
-12.7
74
0
49
25.4
74
0
49
-12.7
74
0
49
0
74
0
49
-12.7
74
0
0
LTYPE
5
41
330
5
100
AcDbSymbolTableRecord
100
AcDbLinetypeTableRecord
2
CENTER
70
0
3
Center ____ _ ____ _ ____ _ ____ _ ____ _ ____
72
65
73
4
40
50.8
49
31.75
74
0
49
-6.35
74
0
49
6.35
74
0
49
-6.35
74
0
0
LTYPE
5
42
330
5
100
AcDbSymbolTableRecord
100
AcDbLinetypeTableRecord
2
CENTER2
70
0
3
Center (.5x) ___ _ ___ _ ___ _ ___ _ ___ _ ___
72
65
73
4
40
28.575
49
19.05
74
0
49
-3.175
74
0
49
3.175
74
0
49
-3.175
74
0
0
LTYPE
5
43
330
5
100
AcDbSymbolTableRecord
100
AcDbLinetypeTableRecord
2
CENTERX2
70
0
3
Center (2x) ________  __  ________  __  _____
72
65
73
4
40
101.6
49
63.5
74
0
49
-12.7
74
0
49
12.7
74
0
49
-12.7
74
0
0
ENDTAB
0
TABLE
2
LAYER
5
2
330
0
100
AcDbSymbolTable
70
1
0
LAYER
5
10
330
2
100
AcDbSymbolTableRecord
100
AcDbLayerTableRecord
2
0
70
0
62
8
6
CONTINUOUS
370
35
390
F
0
LAYER
5
44
330
2
100
AcDbSymbolTableRecord
100
AcDbLayerTableRecord
2
PinLabels
70
0
62
4
6
CONTINUOUS
370
25
390
F
0
LAYER
5
45
330
2
100
AcDbSymbolTableRecord
100
AcDbLayerTableRecord
2
Data
70
0
62
5
6
CONTINUOUS
370
35
390
F
0
LAYER
5
46
330
2
100
AcDbSymbolTableRecord
100
AcDbLayerTableRecord
2
Ground
70
0
62
7
6
CONTINUOUS
370
35
390
F
0
LAYER
5
47
330
2
100
AcDbSymbolTableRecord
100
AcDbLayerTableRecord
2
Power
70
0
62
1
6
CONTINUOUS
370
35
390
F
0
LAYER
5
48
330
2
100
AcDbSymbolTableRecord
100
AcDbLayerTableRecord
2
Clock
70
0
62
2
6
CONTINUOUS
370
35
390
F
0
LAYER
5
49
330
2
100
AcDbSymbolTableRecord
100
AcDbLayerTableRecord
2
Control
70
0
62
6
6
CONTINUOUS
370
35
390
F
0
ENDTAB
0
TABLE
2
STYLE
5
3
330
0
100
AcDbSymbolTable
70
3
0
STYLE
5
4A
330
2
100
AcDbSymbolTableRecord
100
AcDbTextStyleTableRecord
2
standard
70
0
40
0
41
1
50
0
71
0
42
1
3
standard
4

0
STYLE
5
4B
330
2
100
AcDbSymbolTableRecord
100
AcDbTextStyleTableRecord
2
iso
70
0
40
0
41
1
50
0
71
0
42
1
3
iso
4

0
STYLE
5
4C
330
2
100
AcDbSymbolTableRecord
100
AcDbTextStyleTableRecord
2
Standard
70
0
40
0
41
1
50
0
71
0
42
1
3
txt
4

0
ENDTAB
0
TABLE
2
VIEW
5
6
330
0
100
AcDbSymbolTable
70
0
0
ENDTAB
0
TABLE
2
UCS
5
7
330
0
100
AcDbSymbolTable
70
0
0
ENDTAB
0
TABLE
2
APPID
5
9
330
0
100
AcDbSymbolTable
70
1
0
APPID
5
12
330
9
100
AcDbSymbolTableRecord
100
AcDbRegAppTableRecord
2
ACAD
70
0
0
ENDTAB
0
TABLE
2
DIMSTYLE
5
A
330
0
100
AcDbSymbolTable
70
1
100
AcDbDimStyleTable
71
1
0
DIMSTYLE
105
4D
330
A
100
AcDbSymbolTableRecord
100
AcDbDimStyleTableRecord
2
Standard
70
0
40
1
41
2.5
42
0.625
43
0.38
44
1.25
45
0
46
0
47
0
48
0
140
2.5
141
0.09
142
0
143
25.4
144
1
145
0
146
1
147
0.625
148
0
71
0
72
0
73
0
74
1
75
0
76
0
77
0
78
0
79
0
170
0
171
2
172
0
173
0
174
0
175
0
176
0
177
0
178
0
179
0
271
4
272
4
273
2
274
2
275
0
276
0
277
2
278
46
279
0
280
0
281
0
282
0
283
1
284
0
285
0
286
0
288
0
289
3
340
Standard
341

371
-2
372
-2
0
ENDTAB
0
TABLE
2
BLOCK_RECORD
5
1
330
0
100
AcDbSymbolTable
70
2
0
BLOCK_RECORD
5
1F
330
1
100
AcDbSymbolTableRecord
100
AcDbBlockTableRecord
2
*Model_Space
70
0
280
1
281
0
0
BLOCK_RECORD
5
1E
330
1
100
AcDbSymbolTableRecord
100
AcDbBlockTableRecord
2
*Paper_Space
70
0
280
1
281
0
0
ENDTAB
0
ENDSEC
0
SECTION
2
BLOCKS
0
BLOCK
5
20
330
1F
100
AcDbEntity
8
0
100
AcDbBlockBegin
2
*Model_Space
70
0
10
0
20
0
30
0
3
*Model_Space
1

0
ENDBLK
5
21
330
1F
100
AcDbEntity
8
0
100
AcDbBlockEnd
0
BLOCK
5
1C
330
1B
100
AcDbEntity
8
0
100
AcDbBlockBegin
2
*Paper_Space
70
0
10
0
20
0
30
0
3
*Paper_Space
1

0
ENDBLK
5
1D
330
1F
100
AcDbEntity
8
0
100
AcDbBlockEnd
0
ENDSEC
0
SECTION
2
ENTITIES
0
CIRCLE
5
4E
100
AcDbEntity
8
0
6
ByLayer
62
256
370
-1
100
AcDbCircle
10
13.889999
20
38.100001
40
0.635
0
CIRCLE
5
4F
100
AcDbEntity
8
0
6
ByLayer
62
256
370
-1
100
AcDbCircle
10
13.889999
20
35.560001
40
0.635
0
CIRCLE
5
50
100
AcDbEntity
8
0
6
ByLayer
62
256
370
-1
100
AcDbCircle
10
11.349999
20
35.560001
40
0.635
0
CIRCLE
5
51
100
AcDbEntity
8
0
6
ByLayer
62
256
370
-1
100
AcDbCircle
10
11.349999
20
33.020001
40
0.635
0
CIRCLE
5
52
100
AcDbEntity
8
0
6
ByLayer
62
256
370
-1
100
AcDbCircle
10
13.889999
20
30.480001
40
0.635
0
CIRCLE
5
53
100
AcDbEntity
8
0
6
ByLayer
62
256
370
-1
100
AcDbCircle
10
11.349999
20
30.480001
40
0.635
0
CIRCLE
5
54
100
AcDbEntity
8
0
6
ByLayer
62
256
370
-1
100
AcDbCircle
10
13.889999
20
27.940001
40
0.635
0
CIRCLE
5
55
100
AcDbEntity
8
0
6
ByLayer
62
256
370
-1
100
AcDbCircle
10
11.349999
20
27.940001
40
0.635
0
CIRCLE
5
56
100
AcDbEntity
8
0
6
ByLayer
62
256
370
-1
100
AcDbCircle
10
13.889999
20
25.400001
40
0.635
0
CIRCLE
5
57
100
AcDbEntity
8
0
6
ByLayer
62
256
370
-1
100
AcDbCircle
10
11.349999
20
25.400001
40
0.635
0
CIRCLE
5
58
100
AcDbEntity
8
0
6
ByLayer
62
256
370
-1
100
AcDbCircle
10
13.889999
20
22.860001
40
0.635
0
CIRCLE
5
59
100
AcDbEntity
8
0
6
ByLayer
62
256
370
-1
100
AcDbCircle
10
11.349999
20
22.860001
40
0.635
0
CIRCLE
5
5A
100
AcDbEntity
8
0
6
ByLayer
62
256
370
-1
100
AcDbCircle
10
13.889999
20
20.320001
40
0.635
0
CIRCLE
5
5B
100
AcDbEntity
8
0
6
ByLayer
62
256
370
-1
100
AcDbCircle
10
11.349999
20
20.320001
40
0.635
0
CIRCLE
5
5C
100
AcDbEntity
8
0
6
ByLayer
62
256
370
-1
100
AcDbCircle
10
13.889999
20
17.780001
40
0.635
0
CIRCLE
5
5D
100
AcDbEntity
8
0
6
ByLayer
62
256
370
-1
100
AcDbCircle
10
11.349999
20
17.780001
40
0.635
0
CIRCLE
5
5E
100
AcDbEntity
8
0
6
ByLayer
62
256
370
-1
100
AcDbCircle
10
13.889999
20
15.240001
40
0.635
0
CIRCLE
5
5F
100
AcDbEntity
8
0
6
ByLayer
62
256
370
-1
100
AcDbCircle
10
13.889999
20
7.620001
40
0.635
0
CIRCLE
5
60
100
AcDbEntity
8
0
6
ByLayer
62
256
370
-1
100
AcDbCircle
10
11.349999
20
7.620001
40
0.635
0
CIRCLE
5
61
100
AcDbEntity
8
Ground
6
ByLayer
62
256
370
-1
100
AcDbCircle
10
13.889999
20
33.020001
40
0.635
0
CIRCLE
5
62
100
AcDbEntity
8
Power
6
ByLayer
62
256
370
-1
100
AcDbCircle
10
11.349999
20
38.100001
40
0.635
0
CIRCLE
5
63
100
AcDbEntity
8
Clock
6
ByLayer
62
256
370
-1
100
AcDbCircle
10
11.349999
20
10.160001
40
0.635
0
CIRCLE
5
64
100
AcDbEntity
8
Control
6
ByLayer
62
256
370
-1
100
AcDbCircle
10
13.889999
20
12.700001
40
0.635
0
CIRCLE
5
65
100
AcDbEntity
8
Control
6
ByLayer
62
256
370
-1
100
AcDbCircle
10
13.889999
20
10.160001
40
0.635
0
CIRCLE
5
66
100
AcDbEntity
8
Data
6
ByLayer
62
256
370
-1
100
AcDbCircle
10
11.349999
20
15.240001
40
0.635
0
CIRCLE
5
67
100
AcDbEntity
8
Data
6
ByLayer
62
256
370
-1
100
AcDbCircle
10
11.349999
20
12.700001
40
0.635
0
CIRCLE
5
68
100
AcDbEntity
8
0
6
ByLayer
62
256
370
-1
100
AcDbCircle
10
44.54
20
20.38
40
0.635
0
LINE
5
69
100
AcDbEntity
8
0
6
ByLayer
62
256
370
-1
100
AcDbLine
10
40
20
30
11
70
21
30
0
LINE
5
6A
100
AcDbEntity
8
0
6
ByLayer
62
256
370
-1
100
AcDbLine
10
70
20
30
11
70
21
15
0
LINE
5
6B
100
AcDbEntity
8
0
6
ByLayer
62
256
370
-1
100
AcDbLine
10
70
20
15
11
40
21
15
0
LINE
5
6C
100
AcDbEntity
8
0
6
ByLayer
62
256
370
-1
100
AcDbLine
10
40
20
15
11
40
21
30
0
MTEXT
5
6D
100
AcDbEntity
8
0
6
ByLayer
62
256
370
-1
100
AcDbMText
10
44
20
31
30
0
40
4
41
29.2222222222
71
7
72
5
1
RF MODULE
7
iso
210
0
220
0
230
1
50
0
73
2
44
1
0
CIRCLE
5
6E
100
AcDbEntity
8
Ground
6
ByLayer
62
256
370
-1
100
AcDbCircle
10
42
20
28
40
0.635
0
CIRCLE
5
6F
100
AcDbEntity
8
Power
6
ByLayer
62
256
370
-1
100
AcDbCircle
10
44.54
20
28
40
0.635
0
CIRCLE
5
70
100
AcDbEntity
8
Control
6
ByLayer
62
256
370
-1
100
AcDbCircle
10
44.54
20
25.46
40
0.635
0
CIRCLE
5
71
100
AcDbEntity
8
Control
6
ByLayer
62
256
370
-1
100
AcDbCircle
10
42
20
25.46
40
0.635
0
CIRCLE
5
72
100
AcDbEntity
8
Data
6
ByLayer
62
256
370
-1
100
AcDbCircle
10
44.54
20
22.92
40
0.635
0
CIRCLE
5
73
100
AcDbEntity
8
Data
6
ByLayer
62
256
370
-1
100
AcDbCircle
10
42
20
20.38
40
0.635
0
CIRCLE
5
74
100
AcDbEntity
8
Clock
6
ByLayer
62
256
370
-1
100
AcDbCircle
10
42
20
22.92
40
0.635
0
LINE
5
75
100
AcDbEntity
8
Ground
6
ByLayer
62
256
370
-1
100
AcDbLine
10
42
20
28
11
23
21
28
0
LINE
5
76
100
AcDbEntity
8
Ground
6
ByLayer
62
256
370
-1
100
AcDbLine
10
13.889999
20
33.020001
11
19
21
28
0
LINE
5
77
100
AcDbEntity
8
Ground
6
ByLayer
62
256
370
-1
100
AcDbLine
10
19
20
28
11
23
21
28
0
LINE
5
78
100
AcDbEntity
8
Power
6
ByLayer
62
256
370
-1
100
AcDbLine
10
44.54
20
28
11
41
21
31
0
LINE
5
79
100
AcDbEntity
8
Power
6
ByLayer
62
256
370
-1
100
AcDbLine
10
41
20
31
11
30
21
31
0
LINE
5
7A
100
AcDbEntity
8
Power
6
ByLayer
62
256
370
-1
100
AcDbLine
10
11.349999
20
38.100001
11
14
21
41
0
LINE
5
7B
100
AcDbEntity
8
Power
6
ByLayer
62
256
370
-1
100
AcDbLine
10
14
20
41
11
20
21
41
0
LINE
5
7C
100
AcDbEntity
8
Power
6
ByLayer
62
256
370
-1
100
AcDbLine
10
20
20
41
11
30
21
31
0
LINE
5
7D
100
AcDbEntity
8
Control
6
ByLayer
62
256
370
-1
100
AcDbLine
10
13.889999
20
10.160001
11
17
21
12
0
LINE
5
7E
100
AcDbEntity
8
Control
6
ByLayer
62
256
370
-1
100
AcDbLine
10
13.889999
20
12.700001
11
17
21
15
0
LINE
5
7F
100
AcDbEntity
8
Control
6
ByLayer
62
256
370
-1
100
AcDbLine
10
42
20
25.46
11
30
21
25.5
0
LINE
5
80
100
AcDbEntity
8
Control
6
ByLayer
62
256
370
-1
100
AcDbLine
10
30
20
25.5
11
17
21
15
0
LINE
5
81
100
AcDbEntity
8
Control
6
ByLayer
62
256
370
-1
100
AcDbLine
10
44.54
20
25.46
11
43.4
21
24.3
0
LINE
5
82
100
AcDbEntity
8
Control
6
ByLayer
62
256
370
-1
100
AcDbLine
10
43.4
20
24.3
11
32
21
24.3
0
LINE
5
83
100
AcDbEntity
8
Control
6
ByLayer
62
256
370
-1
100
AcDbLine
10
17
20
12
11
32
21
24.3
0
LINE
5
84
100
AcDbEntity
8
Clock
6
ByLayer
62
256
370
-1
100
AcDbLine
10
11.349999
20
10.160001
11
13
21
9
0
LINE
5
85
100
AcDbEntity
8
Clock
6
ByLayer
62
256
370
-1
100
AcDbLine
10
13
20
9
11
17
21
9
0
LINE
5
86
100
AcDbEntity
8
Clock
6
ByLayer
62
256
370
-1
100
AcDbLine
10
17
20
9
11
34
21
23
0
LINE
5
87
100
AcDbEntity
8
Clock
6
ByLayer
62
256
370
-1
100
AcDbLine
10
34
20
23
11
42
21
22.92
0
LINE
5
88
100
AcDbEntity
8
Data
6
ByLayer
62
256
370
-1
100
AcDbLine
10
44.54
20
22.92
11
43
21
21.5
0
LINE
5
89
100
AcDbEntity
8
Data
6
ByLayer
62
256
370
-1
100
AcDbLine
10
43
20
21.5
11
22
21
21.5
0
LINE
5
8A
100
AcDbEntity
8
Data
6
ByLayer
62
256
370
-1
100
AcDbLine
10
22
20
21.5
11
16
21
16.5
0
LINE
5
8B
100
AcDbEntity
8
Data
6
ByLayer
62
256
370
-1
100
AcDbLine
10
16
20
16.5
11
13
21
16.5
0
LINE
5
8C
100
AcDbEntity
8
Data
6
ByLayer
62
256
370
-1
100
AcDbLine
10
13
20
16.5
11
11.349999
21
15.240001
0
LINE
5
8D
100
AcDbEntity
8
Data
6
ByLayer
62
256
370
-1
100
AcDbLine
10
11.349999
20
12.700001
11
13
21
14
0
LINE
5
8E
100
AcDbEntity
8
Data
6
ByLayer
62
256
370
-1
100
AcDbLine
10
13
20
14
11
17
21
14
0
LINE
5
8F
100
AcDbEntity
8
Data
6
ByLayer
62
256
370
-1
100
AcDbLine
10
17
20
14
11
25
21
20
0
LINE
5
90
100
AcDbEntity
8
Data
6
ByLayer
62
256
370
-1
100
AcDbLine
10
25
20
20
11
25.5
21
20.4
0
LINE
5
91
100
AcDbEntity
8
Data
6
ByLayer
62
256
370
-1
100
AcDbLine
10
25.5
20
20.4
11
42
21
20.38
0
LINE
5
92
100
AcDbEntity
8
0
6
ByLayer
62
256
370
-1
100
AcDbLine
10
16.199999
20
40
11
0
21
40
0
LINE
5
93
100
AcDbEntity
8
0
6
ByLayer
62
256
370
-1
100
AcDbLine
10
16.199999
20
0
11
16.199999
21
40
0
MTEXT
5
94
100
AcDbEntity
8
0
6
ByLayer
62
256
370
-1
100
AcDbMText
10
17
20
4
30
0
40
4
41
38.999999152
71
1
72
5
1
RASPBERRY PI
7
iso
210
0
220
0
230
1
50
0
73
2
44
1
0
MTEXT
5
95
100
AcDbEntity
8
PinLabels
6
ByLayer
62
256
370
-1
100
AcDbMText
10
15.389999
20
33.020001
30
0
40
1
41
2.33333333333
71
4
72
5
1
GND
7
standard
210
0
220
0
230
1
50
0
73
2
44
1
0
MTEXT
5
96
100
AcDbEntity
8
PinLabels
6
ByLayer
62
256
370
-1
100
AcDbMText
10
9.849999
20
38.100001
30
0
40
1
41
2.55555555556
71
6
72
5
1
3.3V
7
standard
210
0
220
0
230
1
50
0
73
2
44
1
0
MTEXT
5
97
100
AcDbEntity
8
PinLabels
6
ByLayer
62
256
370
-1
100
AcDbMText
10
9.849999
20
10.160001
30
0
40
1
41
2.999999788
71
6
72
5
1
SCLK
7
standard
210
0
220
0
230
1
50
0
73
2
44
1
0
MTEXT
5
98
100
AcDbEntity
8
PinLabels
6
ByLayer
62
256
370
-1
100
AcDbMText
10
15.389999
20
10.160001
30
0
40
1
41
2
71
4
72
5
1
CE0
7
standard
210
0
220
0
230
1
50
0
73
2
44
1
0
MTEXT
5
99
100
AcDbEntity
8
PinLabels
6
ByLayer
62
256
370
-1
100
AcDbMText
10
15.389999
20
12.700001
30
0
40
1
41
2.11111111111
71
4
72
5
1
G25
7
standard
210
0
220
0
230
1
50
0
73
2
44
1
0
MTEXT
5
9A
100
AcDbEntity
8
PinLabels
6
ByLayer
62
256
370
-1
100
AcDbMText
10
9.849999
20
15.240001
30
0
40
1
41
2.77777756578
71
6
72
5
1
MOSI
7
standard
210
0
220
0
230
1
50
0
73
2
44
1
0
MTEXT
5
9B
100
AcDbEntity
8
PinLabels
6
ByLayer
62
256
370
-1
100
AcDbMText
10
9.849999
20
12.700001
30
0
40
1
41
2.77777756578
71
6
72
5
1
MISO
7
standard
210
0
220
0
230
1
50
0
73
2
44
1
0
ENDSEC
0
SECTION
2
OBJECTS
0
DICTIONARY
5
C
330
0
100
AcDbDictionary
281
1
3
ACAD_GROUP
350
D
0
DICTIONARY
5
D
330
C
100
AcDbDictionary
281
1
0
ENDSEC
0
EOF
